G04 #@! TF.GenerationSoftware,KiCad,Pcbnew,5.0.1*
G04 #@! TF.CreationDate,2019-11-25T21:23:25-06:00*
G04 #@! TF.ProjectId,ft2232_board,6674323233325F626F6172642E6B6963,A*
G04 #@! TF.SameCoordinates,Original*
G04 #@! TF.FileFunction,Legend,Top*
G04 #@! TF.FilePolarity,Positive*
%FSLAX46Y46*%
G04 Gerber Fmt 4.6, Leading zero omitted, Abs format (unit mm)*
G04 Created by KiCad (PCBNEW 5.0.1) date Mon 25 Nov 2019 09:23:25 PM CST*
%MOMM*%
%LPD*%
G01*
G04 APERTURE LIST*
%ADD10C,0.120000*%
%ADD11C,0.100000*%
%ADD12C,0.150000*%
G04 APERTURE END LIST*
D10*
G04 #@! TO.C,C1*
X155904000Y-120987078D02*
X155904000Y-120469922D01*
X154484000Y-120987078D02*
X154484000Y-120469922D01*
G04 #@! TO.C,C2*
X185463922Y-116407000D02*
X185981078Y-116407000D01*
X185463922Y-114987000D02*
X185981078Y-114987000D01*
G04 #@! TO.C,C3*
X154484000Y-116913922D02*
X154484000Y-117431078D01*
X155904000Y-116913922D02*
X155904000Y-117431078D01*
G04 #@! TO.C,C4*
X167596078Y-119940000D02*
X167078922Y-119940000D01*
X167596078Y-121360000D02*
X167078922Y-121360000D01*
G04 #@! TO.C,C5*
X163120000Y-129583922D02*
X163120000Y-130101078D01*
X164540000Y-129583922D02*
X164540000Y-130101078D01*
G04 #@! TO.C,C6*
X166445000Y-125051078D02*
X166445000Y-124533922D01*
X165025000Y-125051078D02*
X165025000Y-124533922D01*
G04 #@! TO.C,C7*
X181685000Y-119336078D02*
X181685000Y-118818922D01*
X180265000Y-119336078D02*
X180265000Y-118818922D01*
G04 #@! TO.C,C8*
X166296078Y-118035000D02*
X165778922Y-118035000D01*
X166296078Y-119455000D02*
X165778922Y-119455000D01*
G04 #@! TO.C,C9*
X165025000Y-129583922D02*
X165025000Y-130101078D01*
X166445000Y-129583922D02*
X166445000Y-130101078D01*
G04 #@! TO.C,C10*
X164540000Y-125051078D02*
X164540000Y-124533922D01*
X163120000Y-125051078D02*
X163120000Y-124533922D01*
G04 #@! TO.C,C11*
X184223922Y-130250000D02*
X184741078Y-130250000D01*
X184223922Y-128830000D02*
X184741078Y-128830000D01*
G04 #@! TO.C,C12*
X179780000Y-119336078D02*
X179780000Y-118818922D01*
X178360000Y-119336078D02*
X178360000Y-118818922D01*
G04 #@! TO.C,C13*
X166930000Y-129583922D02*
X166930000Y-130101078D01*
X168350000Y-129583922D02*
X168350000Y-130101078D01*
G04 #@! TO.C,C14*
X184223922Y-127710000D02*
X184741078Y-127710000D01*
X184223922Y-126290000D02*
X184741078Y-126290000D01*
G04 #@! TO.C,C15*
X174065000Y-119336078D02*
X174065000Y-118818922D01*
X172645000Y-119336078D02*
X172645000Y-118818922D01*
G04 #@! TO.C,C16*
X178360000Y-136266422D02*
X178360000Y-136783578D01*
X179780000Y-136266422D02*
X179780000Y-136783578D01*
G04 #@! TO.C,C17*
X172645000Y-136266422D02*
X172645000Y-136783578D01*
X174065000Y-136266422D02*
X174065000Y-136783578D01*
D11*
G04 #@! TO.C,D1*
X167533000Y-138938000D02*
G75*
G03X167533000Y-138938000I-50000J0D01*
G01*
G04 #@! TO.C,D2*
X170027000Y-138938000D02*
G75*
G03X170027000Y-138938000I-50000J0D01*
G01*
G04 #@! TO.C,D3*
X172336000Y-138938000D02*
G75*
G03X172336000Y-138938000I-50000J0D01*
G01*
D10*
G04 #@! TO.C,L1*
X162635000Y-130101078D02*
X162635000Y-129583922D01*
X161215000Y-130101078D02*
X161215000Y-129583922D01*
G04 #@! TO.C,L2*
X161215000Y-124533922D02*
X161215000Y-125051078D01*
X162635000Y-124533922D02*
X162635000Y-125051078D01*
G04 #@! TO.C,Q1*
X161300000Y-136380000D02*
X161300000Y-134920000D01*
X164460000Y-136380000D02*
X164460000Y-134220000D01*
X164460000Y-136380000D02*
X163530000Y-136380000D01*
X161300000Y-136380000D02*
X162230000Y-136380000D01*
G04 #@! TO.C,Q2*
X157485000Y-136380000D02*
X157485000Y-134920000D01*
X160645000Y-136380000D02*
X160645000Y-134220000D01*
X160645000Y-136380000D02*
X159715000Y-136380000D01*
X157485000Y-136380000D02*
X158415000Y-136380000D01*
G04 #@! TO.C,Q3*
X153675000Y-136380000D02*
X153675000Y-134920000D01*
X156835000Y-136380000D02*
X156835000Y-134220000D01*
X156835000Y-136380000D02*
X155905000Y-136380000D01*
X153675000Y-136380000D02*
X154605000Y-136380000D01*
G04 #@! TO.C,R1*
X160095000Y-125021078D02*
X160095000Y-124503922D01*
X158675000Y-125021078D02*
X158675000Y-124503922D01*
G04 #@! TO.C,R2*
X158675000Y-129583922D02*
X158675000Y-130101078D01*
X160095000Y-129583922D02*
X160095000Y-130101078D01*
G04 #@! TO.C,R3*
X185493922Y-114502000D02*
X186011078Y-114502000D01*
X185493922Y-113082000D02*
X186011078Y-113082000D01*
G04 #@! TO.C,R4*
X185463922Y-118312000D02*
X185981078Y-118312000D01*
X185463922Y-116892000D02*
X185981078Y-116892000D01*
G04 #@! TO.C,R5*
X185463922Y-120217000D02*
X185981078Y-120217000D01*
X185463922Y-118797000D02*
X185981078Y-118797000D01*
G04 #@! TO.C,R6*
X185493922Y-112597000D02*
X186011078Y-112597000D01*
X185493922Y-111177000D02*
X186011078Y-111177000D01*
G04 #@! TO.C,R7*
X168716799Y-134445601D02*
X168199643Y-134445601D01*
X168716799Y-135865601D02*
X168199643Y-135865601D01*
G04 #@! TO.C,R8*
X169978000Y-118818922D02*
X169978000Y-119336078D01*
X171398000Y-118818922D02*
X171398000Y-119336078D01*
G04 #@! TO.C,R9*
X162633922Y-139140000D02*
X163151078Y-139140000D01*
X162633922Y-137720000D02*
X163151078Y-137720000D01*
G04 #@! TO.C,R10*
X158823922Y-139140000D02*
X159341078Y-139140000D01*
X158823922Y-137720000D02*
X159341078Y-137720000D01*
G04 #@! TO.C,R11*
X155013922Y-139140000D02*
X155531078Y-139140000D01*
X155013922Y-137720000D02*
X155531078Y-137720000D01*
G04 #@! TO.C,U1*
X156698000Y-119162000D02*
X156698000Y-121612000D01*
X159918000Y-120962000D02*
X159918000Y-119162000D01*
G04 #@! TO.C,U2*
X183220000Y-115200000D02*
X183220000Y-112250000D01*
X180000000Y-113400000D02*
X180000000Y-115200000D01*
D12*
G04 #@! TO.C,U3*
X170705000Y-123575000D02*
X169680000Y-123575000D01*
X181055000Y-122575000D02*
X179980000Y-122575000D01*
X181055000Y-132925000D02*
X179980000Y-132925000D01*
X170705000Y-132925000D02*
X171780000Y-132925000D01*
X170705000Y-122575000D02*
X171780000Y-122575000D01*
X170705000Y-132925000D02*
X170705000Y-131850000D01*
X181055000Y-132925000D02*
X181055000Y-131850000D01*
X181055000Y-122575000D02*
X181055000Y-123650000D01*
X170705000Y-122575000D02*
X170705000Y-123575000D01*
D10*
G04 #@! TO.C,Y1*
X158612500Y-116850000D02*
X174587500Y-116850000D01*
X158612500Y-111750000D02*
X158612500Y-116850000D01*
X174587500Y-111750000D02*
X158612500Y-111750000D01*
G04 #@! TO.C,J2*
X189932000Y-110430000D02*
X191262000Y-110430000D01*
X189932000Y-111760000D02*
X189932000Y-110430000D01*
X189932000Y-113030000D02*
X192592000Y-113030000D01*
X192592000Y-113030000D02*
X192592000Y-141030000D01*
X189932000Y-113030000D02*
X189932000Y-141030000D01*
X189932000Y-141030000D02*
X192592000Y-141030000D01*
G04 #@! TO.C,C1*
D12*
X153249333Y-121007142D02*
X153201714Y-121054761D01*
X153058857Y-121102380D01*
X152963619Y-121102380D01*
X152820761Y-121054761D01*
X152725523Y-120959523D01*
X152677904Y-120864285D01*
X152630285Y-120673809D01*
X152630285Y-120530952D01*
X152677904Y-120340476D01*
X152725523Y-120245238D01*
X152820761Y-120150000D01*
X152963619Y-120102380D01*
X153058857Y-120102380D01*
X153201714Y-120150000D01*
X153249333Y-120197619D01*
X154201714Y-121102380D02*
X153630285Y-121102380D01*
X153916000Y-121102380D02*
X153916000Y-120102380D01*
X153820761Y-120245238D01*
X153725523Y-120340476D01*
X153630285Y-120388095D01*
G04 #@! TO.C,C2*
X188428333Y-116054142D02*
X188380714Y-116101761D01*
X188237857Y-116149380D01*
X188142619Y-116149380D01*
X187999761Y-116101761D01*
X187904523Y-116006523D01*
X187856904Y-115911285D01*
X187809285Y-115720809D01*
X187809285Y-115577952D01*
X187856904Y-115387476D01*
X187904523Y-115292238D01*
X187999761Y-115197000D01*
X188142619Y-115149380D01*
X188237857Y-115149380D01*
X188380714Y-115197000D01*
X188428333Y-115244619D01*
X188809285Y-115244619D02*
X188856904Y-115197000D01*
X188952142Y-115149380D01*
X189190238Y-115149380D01*
X189285476Y-115197000D01*
X189333095Y-115244619D01*
X189380714Y-115339857D01*
X189380714Y-115435095D01*
X189333095Y-115577952D01*
X188761666Y-116149380D01*
X189380714Y-116149380D01*
G04 #@! TO.C,C3*
X153249333Y-117705142D02*
X153201714Y-117752761D01*
X153058857Y-117800380D01*
X152963619Y-117800380D01*
X152820761Y-117752761D01*
X152725523Y-117657523D01*
X152677904Y-117562285D01*
X152630285Y-117371809D01*
X152630285Y-117228952D01*
X152677904Y-117038476D01*
X152725523Y-116943238D01*
X152820761Y-116848000D01*
X152963619Y-116800380D01*
X153058857Y-116800380D01*
X153201714Y-116848000D01*
X153249333Y-116895619D01*
X153582666Y-116800380D02*
X154201714Y-116800380D01*
X153868380Y-117181333D01*
X154011238Y-117181333D01*
X154106476Y-117228952D01*
X154154095Y-117276571D01*
X154201714Y-117371809D01*
X154201714Y-117609904D01*
X154154095Y-117705142D01*
X154106476Y-117752761D01*
X154011238Y-117800380D01*
X153725523Y-117800380D01*
X153630285Y-117752761D01*
X153582666Y-117705142D01*
G04 #@! TO.C,C4*
X164298333Y-121007142D02*
X164250714Y-121054761D01*
X164107857Y-121102380D01*
X164012619Y-121102380D01*
X163869761Y-121054761D01*
X163774523Y-120959523D01*
X163726904Y-120864285D01*
X163679285Y-120673809D01*
X163679285Y-120530952D01*
X163726904Y-120340476D01*
X163774523Y-120245238D01*
X163869761Y-120150000D01*
X164012619Y-120102380D01*
X164107857Y-120102380D01*
X164250714Y-120150000D01*
X164298333Y-120197619D01*
X165155476Y-120435714D02*
X165155476Y-121102380D01*
X164917380Y-120054761D02*
X164679285Y-120769047D01*
X165298333Y-120769047D01*
G04 #@! TO.C,C5*
X163409333Y-133072142D02*
X163361714Y-133119761D01*
X163218857Y-133167380D01*
X163123619Y-133167380D01*
X162980761Y-133119761D01*
X162885523Y-133024523D01*
X162837904Y-132929285D01*
X162790285Y-132738809D01*
X162790285Y-132595952D01*
X162837904Y-132405476D01*
X162885523Y-132310238D01*
X162980761Y-132215000D01*
X163123619Y-132167380D01*
X163218857Y-132167380D01*
X163361714Y-132215000D01*
X163409333Y-132262619D01*
X164314095Y-132167380D02*
X163837904Y-132167380D01*
X163790285Y-132643571D01*
X163837904Y-132595952D01*
X163933142Y-132548333D01*
X164171238Y-132548333D01*
X164266476Y-132595952D01*
X164314095Y-132643571D01*
X164361714Y-132738809D01*
X164361714Y-132976904D01*
X164314095Y-133072142D01*
X164266476Y-133119761D01*
X164171238Y-133167380D01*
X163933142Y-133167380D01*
X163837904Y-133119761D01*
X163790285Y-133072142D01*
G04 #@! TO.C,C6*
X166203333Y-127611142D02*
X166155714Y-127658761D01*
X166012857Y-127706380D01*
X165917619Y-127706380D01*
X165774761Y-127658761D01*
X165679523Y-127563523D01*
X165631904Y-127468285D01*
X165584285Y-127277809D01*
X165584285Y-127134952D01*
X165631904Y-126944476D01*
X165679523Y-126849238D01*
X165774761Y-126754000D01*
X165917619Y-126706380D01*
X166012857Y-126706380D01*
X166155714Y-126754000D01*
X166203333Y-126801619D01*
X167060476Y-126706380D02*
X166870000Y-126706380D01*
X166774761Y-126754000D01*
X166727142Y-126801619D01*
X166631904Y-126944476D01*
X166584285Y-127134952D01*
X166584285Y-127515904D01*
X166631904Y-127611142D01*
X166679523Y-127658761D01*
X166774761Y-127706380D01*
X166965238Y-127706380D01*
X167060476Y-127658761D01*
X167108095Y-127611142D01*
X167155714Y-127515904D01*
X167155714Y-127277809D01*
X167108095Y-127182571D01*
X167060476Y-127134952D01*
X166965238Y-127087333D01*
X166774761Y-127087333D01*
X166679523Y-127134952D01*
X166631904Y-127182571D01*
X166584285Y-127277809D01*
G04 #@! TO.C,C7*
X182713333Y-120372142D02*
X182665714Y-120419761D01*
X182522857Y-120467380D01*
X182427619Y-120467380D01*
X182284761Y-120419761D01*
X182189523Y-120324523D01*
X182141904Y-120229285D01*
X182094285Y-120038809D01*
X182094285Y-119895952D01*
X182141904Y-119705476D01*
X182189523Y-119610238D01*
X182284761Y-119515000D01*
X182427619Y-119467380D01*
X182522857Y-119467380D01*
X182665714Y-119515000D01*
X182713333Y-119562619D01*
X183046666Y-119467380D02*
X183713333Y-119467380D01*
X183284761Y-120467380D01*
G04 #@! TO.C,C8*
X163028333Y-119102142D02*
X162980714Y-119149761D01*
X162837857Y-119197380D01*
X162742619Y-119197380D01*
X162599761Y-119149761D01*
X162504523Y-119054523D01*
X162456904Y-118959285D01*
X162409285Y-118768809D01*
X162409285Y-118625952D01*
X162456904Y-118435476D01*
X162504523Y-118340238D01*
X162599761Y-118245000D01*
X162742619Y-118197380D01*
X162837857Y-118197380D01*
X162980714Y-118245000D01*
X163028333Y-118292619D01*
X163599761Y-118625952D02*
X163504523Y-118578333D01*
X163456904Y-118530714D01*
X163409285Y-118435476D01*
X163409285Y-118387857D01*
X163456904Y-118292619D01*
X163504523Y-118245000D01*
X163599761Y-118197380D01*
X163790238Y-118197380D01*
X163885476Y-118245000D01*
X163933095Y-118292619D01*
X163980714Y-118387857D01*
X163980714Y-118435476D01*
X163933095Y-118530714D01*
X163885476Y-118578333D01*
X163790238Y-118625952D01*
X163599761Y-118625952D01*
X163504523Y-118673571D01*
X163456904Y-118721190D01*
X163409285Y-118816428D01*
X163409285Y-119006904D01*
X163456904Y-119102142D01*
X163504523Y-119149761D01*
X163599761Y-119197380D01*
X163790238Y-119197380D01*
X163885476Y-119149761D01*
X163933095Y-119102142D01*
X163980714Y-119006904D01*
X163980714Y-118816428D01*
X163933095Y-118721190D01*
X163885476Y-118673571D01*
X163790238Y-118625952D01*
G04 #@! TO.C,C9*
X165568333Y-133072142D02*
X165520714Y-133119761D01*
X165377857Y-133167380D01*
X165282619Y-133167380D01*
X165139761Y-133119761D01*
X165044523Y-133024523D01*
X164996904Y-132929285D01*
X164949285Y-132738809D01*
X164949285Y-132595952D01*
X164996904Y-132405476D01*
X165044523Y-132310238D01*
X165139761Y-132215000D01*
X165282619Y-132167380D01*
X165377857Y-132167380D01*
X165520714Y-132215000D01*
X165568333Y-132262619D01*
X166044523Y-133167380D02*
X166235000Y-133167380D01*
X166330238Y-133119761D01*
X166377857Y-133072142D01*
X166473095Y-132929285D01*
X166520714Y-132738809D01*
X166520714Y-132357857D01*
X166473095Y-132262619D01*
X166425476Y-132215000D01*
X166330238Y-132167380D01*
X166139761Y-132167380D01*
X166044523Y-132215000D01*
X165996904Y-132262619D01*
X165949285Y-132357857D01*
X165949285Y-132595952D01*
X165996904Y-132691190D01*
X166044523Y-132738809D01*
X166139761Y-132786428D01*
X166330238Y-132786428D01*
X166425476Y-132738809D01*
X166473095Y-132691190D01*
X166520714Y-132595952D01*
G04 #@! TO.C,C10*
X163187142Y-127611142D02*
X163139523Y-127658761D01*
X162996666Y-127706380D01*
X162901428Y-127706380D01*
X162758571Y-127658761D01*
X162663333Y-127563523D01*
X162615714Y-127468285D01*
X162568095Y-127277809D01*
X162568095Y-127134952D01*
X162615714Y-126944476D01*
X162663333Y-126849238D01*
X162758571Y-126754000D01*
X162901428Y-126706380D01*
X162996666Y-126706380D01*
X163139523Y-126754000D01*
X163187142Y-126801619D01*
X164139523Y-127706380D02*
X163568095Y-127706380D01*
X163853809Y-127706380D02*
X163853809Y-126706380D01*
X163758571Y-126849238D01*
X163663333Y-126944476D01*
X163568095Y-126992095D01*
X164758571Y-126706380D02*
X164853809Y-126706380D01*
X164949047Y-126754000D01*
X164996666Y-126801619D01*
X165044285Y-126896857D01*
X165091904Y-127087333D01*
X165091904Y-127325428D01*
X165044285Y-127515904D01*
X164996666Y-127611142D01*
X164949047Y-127658761D01*
X164853809Y-127706380D01*
X164758571Y-127706380D01*
X164663333Y-127658761D01*
X164615714Y-127611142D01*
X164568095Y-127515904D01*
X164520476Y-127325428D01*
X164520476Y-127087333D01*
X164568095Y-126896857D01*
X164615714Y-126801619D01*
X164663333Y-126754000D01*
X164758571Y-126706380D01*
G04 #@! TO.C,C11*
X187317142Y-129897142D02*
X187269523Y-129944761D01*
X187126666Y-129992380D01*
X187031428Y-129992380D01*
X186888571Y-129944761D01*
X186793333Y-129849523D01*
X186745714Y-129754285D01*
X186698095Y-129563809D01*
X186698095Y-129420952D01*
X186745714Y-129230476D01*
X186793333Y-129135238D01*
X186888571Y-129040000D01*
X187031428Y-128992380D01*
X187126666Y-128992380D01*
X187269523Y-129040000D01*
X187317142Y-129087619D01*
X188269523Y-129992380D02*
X187698095Y-129992380D01*
X187983809Y-129992380D02*
X187983809Y-128992380D01*
X187888571Y-129135238D01*
X187793333Y-129230476D01*
X187698095Y-129278095D01*
X189221904Y-129992380D02*
X188650476Y-129992380D01*
X188936190Y-129992380D02*
X188936190Y-128992380D01*
X188840952Y-129135238D01*
X188745714Y-129230476D01*
X188650476Y-129278095D01*
G04 #@! TO.C,C12*
X175887142Y-118467142D02*
X175839523Y-118514761D01*
X175696666Y-118562380D01*
X175601428Y-118562380D01*
X175458571Y-118514761D01*
X175363333Y-118419523D01*
X175315714Y-118324285D01*
X175268095Y-118133809D01*
X175268095Y-117990952D01*
X175315714Y-117800476D01*
X175363333Y-117705238D01*
X175458571Y-117610000D01*
X175601428Y-117562380D01*
X175696666Y-117562380D01*
X175839523Y-117610000D01*
X175887142Y-117657619D01*
X176839523Y-118562380D02*
X176268095Y-118562380D01*
X176553809Y-118562380D02*
X176553809Y-117562380D01*
X176458571Y-117705238D01*
X176363333Y-117800476D01*
X176268095Y-117848095D01*
X177220476Y-117657619D02*
X177268095Y-117610000D01*
X177363333Y-117562380D01*
X177601428Y-117562380D01*
X177696666Y-117610000D01*
X177744285Y-117657619D01*
X177791904Y-117752857D01*
X177791904Y-117848095D01*
X177744285Y-117990952D01*
X177172857Y-118562380D01*
X177791904Y-118562380D01*
G04 #@! TO.C,C13*
X167632142Y-133072142D02*
X167584523Y-133119761D01*
X167441666Y-133167380D01*
X167346428Y-133167380D01*
X167203571Y-133119761D01*
X167108333Y-133024523D01*
X167060714Y-132929285D01*
X167013095Y-132738809D01*
X167013095Y-132595952D01*
X167060714Y-132405476D01*
X167108333Y-132310238D01*
X167203571Y-132215000D01*
X167346428Y-132167380D01*
X167441666Y-132167380D01*
X167584523Y-132215000D01*
X167632142Y-132262619D01*
X168584523Y-133167380D02*
X168013095Y-133167380D01*
X168298809Y-133167380D02*
X168298809Y-132167380D01*
X168203571Y-132310238D01*
X168108333Y-132405476D01*
X168013095Y-132453095D01*
X168917857Y-132167380D02*
X169536904Y-132167380D01*
X169203571Y-132548333D01*
X169346428Y-132548333D01*
X169441666Y-132595952D01*
X169489285Y-132643571D01*
X169536904Y-132738809D01*
X169536904Y-132976904D01*
X169489285Y-133072142D01*
X169441666Y-133119761D01*
X169346428Y-133167380D01*
X169060714Y-133167380D01*
X168965476Y-133119761D01*
X168917857Y-133072142D01*
G04 #@! TO.C,C14*
X187317142Y-127357142D02*
X187269523Y-127404761D01*
X187126666Y-127452380D01*
X187031428Y-127452380D01*
X186888571Y-127404761D01*
X186793333Y-127309523D01*
X186745714Y-127214285D01*
X186698095Y-127023809D01*
X186698095Y-126880952D01*
X186745714Y-126690476D01*
X186793333Y-126595238D01*
X186888571Y-126500000D01*
X187031428Y-126452380D01*
X187126666Y-126452380D01*
X187269523Y-126500000D01*
X187317142Y-126547619D01*
X188269523Y-127452380D02*
X187698095Y-127452380D01*
X187983809Y-127452380D02*
X187983809Y-126452380D01*
X187888571Y-126595238D01*
X187793333Y-126690476D01*
X187698095Y-126738095D01*
X189126666Y-126785714D02*
X189126666Y-127452380D01*
X188888571Y-126404761D02*
X188650476Y-127119047D01*
X189269523Y-127119047D01*
G04 #@! TO.C,C15*
X175252142Y-120372142D02*
X175204523Y-120419761D01*
X175061666Y-120467380D01*
X174966428Y-120467380D01*
X174823571Y-120419761D01*
X174728333Y-120324523D01*
X174680714Y-120229285D01*
X174633095Y-120038809D01*
X174633095Y-119895952D01*
X174680714Y-119705476D01*
X174728333Y-119610238D01*
X174823571Y-119515000D01*
X174966428Y-119467380D01*
X175061666Y-119467380D01*
X175204523Y-119515000D01*
X175252142Y-119562619D01*
X176204523Y-120467380D02*
X175633095Y-120467380D01*
X175918809Y-120467380D02*
X175918809Y-119467380D01*
X175823571Y-119610238D01*
X175728333Y-119705476D01*
X175633095Y-119753095D01*
X177109285Y-119467380D02*
X176633095Y-119467380D01*
X176585476Y-119943571D01*
X176633095Y-119895952D01*
X176728333Y-119848333D01*
X176966428Y-119848333D01*
X177061666Y-119895952D01*
X177109285Y-119943571D01*
X177156904Y-120038809D01*
X177156904Y-120276904D01*
X177109285Y-120372142D01*
X177061666Y-120419761D01*
X176966428Y-120467380D01*
X176728333Y-120467380D01*
X176633095Y-120419761D01*
X176585476Y-120372142D01*
G04 #@! TO.C,C16*
X180967142Y-136882142D02*
X180919523Y-136929761D01*
X180776666Y-136977380D01*
X180681428Y-136977380D01*
X180538571Y-136929761D01*
X180443333Y-136834523D01*
X180395714Y-136739285D01*
X180348095Y-136548809D01*
X180348095Y-136405952D01*
X180395714Y-136215476D01*
X180443333Y-136120238D01*
X180538571Y-136025000D01*
X180681428Y-135977380D01*
X180776666Y-135977380D01*
X180919523Y-136025000D01*
X180967142Y-136072619D01*
X181919523Y-136977380D02*
X181348095Y-136977380D01*
X181633809Y-136977380D02*
X181633809Y-135977380D01*
X181538571Y-136120238D01*
X181443333Y-136215476D01*
X181348095Y-136263095D01*
X182776666Y-135977380D02*
X182586190Y-135977380D01*
X182490952Y-136025000D01*
X182443333Y-136072619D01*
X182348095Y-136215476D01*
X182300476Y-136405952D01*
X182300476Y-136786904D01*
X182348095Y-136882142D01*
X182395714Y-136929761D01*
X182490952Y-136977380D01*
X182681428Y-136977380D01*
X182776666Y-136929761D01*
X182824285Y-136882142D01*
X182871904Y-136786904D01*
X182871904Y-136548809D01*
X182824285Y-136453571D01*
X182776666Y-136405952D01*
X182681428Y-136358333D01*
X182490952Y-136358333D01*
X182395714Y-136405952D01*
X182348095Y-136453571D01*
X182300476Y-136548809D01*
G04 #@! TO.C,C17*
X175252142Y-136882142D02*
X175204523Y-136929761D01*
X175061666Y-136977380D01*
X174966428Y-136977380D01*
X174823571Y-136929761D01*
X174728333Y-136834523D01*
X174680714Y-136739285D01*
X174633095Y-136548809D01*
X174633095Y-136405952D01*
X174680714Y-136215476D01*
X174728333Y-136120238D01*
X174823571Y-136025000D01*
X174966428Y-135977380D01*
X175061666Y-135977380D01*
X175204523Y-136025000D01*
X175252142Y-136072619D01*
X176204523Y-136977380D02*
X175633095Y-136977380D01*
X175918809Y-136977380D02*
X175918809Y-135977380D01*
X175823571Y-136120238D01*
X175728333Y-136215476D01*
X175633095Y-136263095D01*
X176537857Y-135977380D02*
X177204523Y-135977380D01*
X176775952Y-136977380D01*
G04 #@! TO.C,D1*
X165815125Y-138147981D02*
X165815125Y-137147981D01*
X166053221Y-137147981D01*
X166196078Y-137195601D01*
X166291316Y-137290839D01*
X166338935Y-137386077D01*
X166386554Y-137576553D01*
X166386554Y-137719410D01*
X166338935Y-137909886D01*
X166291316Y-138005124D01*
X166196078Y-138100362D01*
X166053221Y-138147981D01*
X165815125Y-138147981D01*
X167338935Y-138147981D02*
X166767506Y-138147981D01*
X167053221Y-138147981D02*
X167053221Y-137147981D01*
X166957982Y-137290839D01*
X166862744Y-137386077D01*
X166767506Y-137433696D01*
G04 #@! TO.C,D2*
X168171904Y-138120380D02*
X168171904Y-137120380D01*
X168410000Y-137120380D01*
X168552857Y-137168000D01*
X168648095Y-137263238D01*
X168695714Y-137358476D01*
X168743333Y-137548952D01*
X168743333Y-137691809D01*
X168695714Y-137882285D01*
X168648095Y-137977523D01*
X168552857Y-138072761D01*
X168410000Y-138120380D01*
X168171904Y-138120380D01*
X169124285Y-137215619D02*
X169171904Y-137168000D01*
X169267142Y-137120380D01*
X169505238Y-137120380D01*
X169600476Y-137168000D01*
X169648095Y-137215619D01*
X169695714Y-137310857D01*
X169695714Y-137406095D01*
X169648095Y-137548952D01*
X169076666Y-138120380D01*
X169695714Y-138120380D01*
G04 #@! TO.C,D3*
X170457904Y-138120380D02*
X170457904Y-137120380D01*
X170696000Y-137120380D01*
X170838857Y-137168000D01*
X170934095Y-137263238D01*
X170981714Y-137358476D01*
X171029333Y-137548952D01*
X171029333Y-137691809D01*
X170981714Y-137882285D01*
X170934095Y-137977523D01*
X170838857Y-138072761D01*
X170696000Y-138120380D01*
X170457904Y-138120380D01*
X171362666Y-137120380D02*
X171981714Y-137120380D01*
X171648380Y-137501333D01*
X171791238Y-137501333D01*
X171886476Y-137548952D01*
X171934095Y-137596571D01*
X171981714Y-137691809D01*
X171981714Y-137929904D01*
X171934095Y-138025142D01*
X171886476Y-138072761D01*
X171791238Y-138120380D01*
X171505523Y-138120380D01*
X171410285Y-138072761D01*
X171362666Y-138025142D01*
G04 #@! TO.C,J1*
X152574666Y-121626380D02*
X152574666Y-122340666D01*
X152527047Y-122483523D01*
X152431809Y-122578761D01*
X152288952Y-122626380D01*
X152193714Y-122626380D01*
X153574666Y-122626380D02*
X153003238Y-122626380D01*
X153288952Y-122626380D02*
X153288952Y-121626380D01*
X153193714Y-121769238D01*
X153098476Y-121864476D01*
X153003238Y-121912095D01*
G04 #@! TO.C,L1*
X161377333Y-133167380D02*
X160901142Y-133167380D01*
X160901142Y-132167380D01*
X162234476Y-133167380D02*
X161663047Y-133167380D01*
X161948761Y-133167380D02*
X161948761Y-132167380D01*
X161853523Y-132310238D01*
X161758285Y-132405476D01*
X161663047Y-132453095D01*
G04 #@! TO.C,L2*
X161123333Y-127706380D02*
X160647142Y-127706380D01*
X160647142Y-126706380D01*
X161409047Y-126801619D02*
X161456666Y-126754000D01*
X161551904Y-126706380D01*
X161790000Y-126706380D01*
X161885238Y-126754000D01*
X161932857Y-126801619D01*
X161980476Y-126896857D01*
X161980476Y-126992095D01*
X161932857Y-127134952D01*
X161361428Y-127706380D01*
X161980476Y-127706380D01*
G04 #@! TO.C,Q1*
X165512761Y-135167619D02*
X165417523Y-135120000D01*
X165322285Y-135024761D01*
X165179428Y-134881904D01*
X165084190Y-134834285D01*
X164988952Y-134834285D01*
X165036571Y-135072380D02*
X164941333Y-135024761D01*
X164846095Y-134929523D01*
X164798476Y-134739047D01*
X164798476Y-134405714D01*
X164846095Y-134215238D01*
X164941333Y-134120000D01*
X165036571Y-134072380D01*
X165227047Y-134072380D01*
X165322285Y-134120000D01*
X165417523Y-134215238D01*
X165465142Y-134405714D01*
X165465142Y-134739047D01*
X165417523Y-134929523D01*
X165322285Y-135024761D01*
X165227047Y-135072380D01*
X165036571Y-135072380D01*
X166417523Y-135072380D02*
X165846095Y-135072380D01*
X166131809Y-135072380D02*
X166131809Y-134072380D01*
X166036571Y-134215238D01*
X165941333Y-134310476D01*
X165846095Y-134358095D01*
G04 #@! TO.C,Q2*
X157384761Y-133389619D02*
X157289523Y-133342000D01*
X157194285Y-133246761D01*
X157051428Y-133103904D01*
X156956190Y-133056285D01*
X156860952Y-133056285D01*
X156908571Y-133294380D02*
X156813333Y-133246761D01*
X156718095Y-133151523D01*
X156670476Y-132961047D01*
X156670476Y-132627714D01*
X156718095Y-132437238D01*
X156813333Y-132342000D01*
X156908571Y-132294380D01*
X157099047Y-132294380D01*
X157194285Y-132342000D01*
X157289523Y-132437238D01*
X157337142Y-132627714D01*
X157337142Y-132961047D01*
X157289523Y-133151523D01*
X157194285Y-133246761D01*
X157099047Y-133294380D01*
X156908571Y-133294380D01*
X157718095Y-132389619D02*
X157765714Y-132342000D01*
X157860952Y-132294380D01*
X158099047Y-132294380D01*
X158194285Y-132342000D01*
X158241904Y-132389619D01*
X158289523Y-132484857D01*
X158289523Y-132580095D01*
X158241904Y-132722952D01*
X157670476Y-133294380D01*
X158289523Y-133294380D01*
G04 #@! TO.C,Q3*
X154590761Y-133389619D02*
X154495523Y-133342000D01*
X154400285Y-133246761D01*
X154257428Y-133103904D01*
X154162190Y-133056285D01*
X154066952Y-133056285D01*
X154114571Y-133294380D02*
X154019333Y-133246761D01*
X153924095Y-133151523D01*
X153876476Y-132961047D01*
X153876476Y-132627714D01*
X153924095Y-132437238D01*
X154019333Y-132342000D01*
X154114571Y-132294380D01*
X154305047Y-132294380D01*
X154400285Y-132342000D01*
X154495523Y-132437238D01*
X154543142Y-132627714D01*
X154543142Y-132961047D01*
X154495523Y-133151523D01*
X154400285Y-133246761D01*
X154305047Y-133294380D01*
X154114571Y-133294380D01*
X154876476Y-132294380D02*
X155495523Y-132294380D01*
X155162190Y-132675333D01*
X155305047Y-132675333D01*
X155400285Y-132722952D01*
X155447904Y-132770571D01*
X155495523Y-132865809D01*
X155495523Y-133103904D01*
X155447904Y-133199142D01*
X155400285Y-133246761D01*
X155305047Y-133294380D01*
X155019333Y-133294380D01*
X154924095Y-133246761D01*
X154876476Y-133199142D01*
G04 #@! TO.C,R1*
X157313333Y-123642380D02*
X156980000Y-123166190D01*
X156741904Y-123642380D02*
X156741904Y-122642380D01*
X157122857Y-122642380D01*
X157218095Y-122690000D01*
X157265714Y-122737619D01*
X157313333Y-122832857D01*
X157313333Y-122975714D01*
X157265714Y-123070952D01*
X157218095Y-123118571D01*
X157122857Y-123166190D01*
X156741904Y-123166190D01*
X158265714Y-123642380D02*
X157694285Y-123642380D01*
X157980000Y-123642380D02*
X157980000Y-122642380D01*
X157884761Y-122785238D01*
X157789523Y-122880476D01*
X157694285Y-122928095D01*
G04 #@! TO.C,R2*
X159218333Y-133167380D02*
X158885000Y-132691190D01*
X158646904Y-133167380D02*
X158646904Y-132167380D01*
X159027857Y-132167380D01*
X159123095Y-132215000D01*
X159170714Y-132262619D01*
X159218333Y-132357857D01*
X159218333Y-132500714D01*
X159170714Y-132595952D01*
X159123095Y-132643571D01*
X159027857Y-132691190D01*
X158646904Y-132691190D01*
X159599285Y-132262619D02*
X159646904Y-132215000D01*
X159742142Y-132167380D01*
X159980238Y-132167380D01*
X160075476Y-132215000D01*
X160123095Y-132262619D01*
X160170714Y-132357857D01*
X160170714Y-132453095D01*
X160123095Y-132595952D01*
X159551666Y-133167380D01*
X160170714Y-133167380D01*
G04 #@! TO.C,R3*
X188428333Y-114244380D02*
X188095000Y-113768190D01*
X187856904Y-114244380D02*
X187856904Y-113244380D01*
X188237857Y-113244380D01*
X188333095Y-113292000D01*
X188380714Y-113339619D01*
X188428333Y-113434857D01*
X188428333Y-113577714D01*
X188380714Y-113672952D01*
X188333095Y-113720571D01*
X188237857Y-113768190D01*
X187856904Y-113768190D01*
X188761666Y-113244380D02*
X189380714Y-113244380D01*
X189047380Y-113625333D01*
X189190238Y-113625333D01*
X189285476Y-113672952D01*
X189333095Y-113720571D01*
X189380714Y-113815809D01*
X189380714Y-114053904D01*
X189333095Y-114149142D01*
X189285476Y-114196761D01*
X189190238Y-114244380D01*
X188904523Y-114244380D01*
X188809285Y-114196761D01*
X188761666Y-114149142D01*
G04 #@! TO.C,R4*
X188428333Y-118054380D02*
X188095000Y-117578190D01*
X187856904Y-118054380D02*
X187856904Y-117054380D01*
X188237857Y-117054380D01*
X188333095Y-117102000D01*
X188380714Y-117149619D01*
X188428333Y-117244857D01*
X188428333Y-117387714D01*
X188380714Y-117482952D01*
X188333095Y-117530571D01*
X188237857Y-117578190D01*
X187856904Y-117578190D01*
X189285476Y-117387714D02*
X189285476Y-118054380D01*
X189047380Y-117006761D02*
X188809285Y-117721047D01*
X189428333Y-117721047D01*
G04 #@! TO.C,R5*
X188428333Y-119959380D02*
X188095000Y-119483190D01*
X187856904Y-119959380D02*
X187856904Y-118959380D01*
X188237857Y-118959380D01*
X188333095Y-119007000D01*
X188380714Y-119054619D01*
X188428333Y-119149857D01*
X188428333Y-119292714D01*
X188380714Y-119387952D01*
X188333095Y-119435571D01*
X188237857Y-119483190D01*
X187856904Y-119483190D01*
X189333095Y-118959380D02*
X188856904Y-118959380D01*
X188809285Y-119435571D01*
X188856904Y-119387952D01*
X188952142Y-119340333D01*
X189190238Y-119340333D01*
X189285476Y-119387952D01*
X189333095Y-119435571D01*
X189380714Y-119530809D01*
X189380714Y-119768904D01*
X189333095Y-119864142D01*
X189285476Y-119911761D01*
X189190238Y-119959380D01*
X188952142Y-119959380D01*
X188856904Y-119911761D01*
X188809285Y-119864142D01*
G04 #@! TO.C,R6*
X188428333Y-112339380D02*
X188095000Y-111863190D01*
X187856904Y-112339380D02*
X187856904Y-111339380D01*
X188237857Y-111339380D01*
X188333095Y-111387000D01*
X188380714Y-111434619D01*
X188428333Y-111529857D01*
X188428333Y-111672714D01*
X188380714Y-111767952D01*
X188333095Y-111815571D01*
X188237857Y-111863190D01*
X187856904Y-111863190D01*
X189285476Y-111339380D02*
X189095000Y-111339380D01*
X188999761Y-111387000D01*
X188952142Y-111434619D01*
X188856904Y-111577476D01*
X188809285Y-111767952D01*
X188809285Y-112148904D01*
X188856904Y-112244142D01*
X188904523Y-112291761D01*
X188999761Y-112339380D01*
X189190238Y-112339380D01*
X189285476Y-112291761D01*
X189333095Y-112244142D01*
X189380714Y-112148904D01*
X189380714Y-111910809D01*
X189333095Y-111815571D01*
X189285476Y-111767952D01*
X189190238Y-111720333D01*
X188999761Y-111720333D01*
X188904523Y-111767952D01*
X188856904Y-111815571D01*
X188809285Y-111910809D01*
G04 #@! TO.C,R7*
X171085554Y-135988981D02*
X170752221Y-135512791D01*
X170514125Y-135988981D02*
X170514125Y-134988981D01*
X170895078Y-134988981D01*
X170990316Y-135036601D01*
X171037935Y-135084220D01*
X171085554Y-135179458D01*
X171085554Y-135322315D01*
X171037935Y-135417553D01*
X170990316Y-135465172D01*
X170895078Y-135512791D01*
X170514125Y-135512791D01*
X171418887Y-134988981D02*
X172085554Y-134988981D01*
X171656982Y-135988981D01*
G04 #@! TO.C,R8*
X168616333Y-118562380D02*
X168283000Y-118086190D01*
X168044904Y-118562380D02*
X168044904Y-117562380D01*
X168425857Y-117562380D01*
X168521095Y-117610000D01*
X168568714Y-117657619D01*
X168616333Y-117752857D01*
X168616333Y-117895714D01*
X168568714Y-117990952D01*
X168521095Y-118038571D01*
X168425857Y-118086190D01*
X168044904Y-118086190D01*
X169187761Y-117990952D02*
X169092523Y-117943333D01*
X169044904Y-117895714D01*
X168997285Y-117800476D01*
X168997285Y-117752857D01*
X169044904Y-117657619D01*
X169092523Y-117610000D01*
X169187761Y-117562380D01*
X169378238Y-117562380D01*
X169473476Y-117610000D01*
X169521095Y-117657619D01*
X169568714Y-117752857D01*
X169568714Y-117800476D01*
X169521095Y-117895714D01*
X169473476Y-117943333D01*
X169378238Y-117990952D01*
X169187761Y-117990952D01*
X169092523Y-118038571D01*
X169044904Y-118086190D01*
X168997285Y-118181428D01*
X168997285Y-118371904D01*
X169044904Y-118467142D01*
X169092523Y-118514761D01*
X169187761Y-118562380D01*
X169378238Y-118562380D01*
X169473476Y-118514761D01*
X169521095Y-118467142D01*
X169568714Y-118371904D01*
X169568714Y-118181428D01*
X169521095Y-118086190D01*
X169473476Y-118038571D01*
X169378238Y-117990952D01*
G04 #@! TO.C,R9*
X162703554Y-140560981D02*
X162370221Y-140084791D01*
X162132125Y-140560981D02*
X162132125Y-139560981D01*
X162513078Y-139560981D01*
X162608316Y-139608601D01*
X162655935Y-139656220D01*
X162703554Y-139751458D01*
X162703554Y-139894315D01*
X162655935Y-139989553D01*
X162608316Y-140037172D01*
X162513078Y-140084791D01*
X162132125Y-140084791D01*
X163179744Y-140560981D02*
X163370221Y-140560981D01*
X163465459Y-140513362D01*
X163513078Y-140465743D01*
X163608316Y-140322886D01*
X163655935Y-140132410D01*
X163655935Y-139751458D01*
X163608316Y-139656220D01*
X163560697Y-139608601D01*
X163465459Y-139560981D01*
X163274982Y-139560981D01*
X163179744Y-139608601D01*
X163132125Y-139656220D01*
X163084506Y-139751458D01*
X163084506Y-139989553D01*
X163132125Y-140084791D01*
X163179744Y-140132410D01*
X163274982Y-140180029D01*
X163465459Y-140180029D01*
X163560697Y-140132410D01*
X163608316Y-140084791D01*
X163655935Y-139989553D01*
G04 #@! TO.C,R10*
X158544363Y-140560981D02*
X158211030Y-140084791D01*
X157972935Y-140560981D02*
X157972935Y-139560981D01*
X158353887Y-139560981D01*
X158449125Y-139608601D01*
X158496744Y-139656220D01*
X158544363Y-139751458D01*
X158544363Y-139894315D01*
X158496744Y-139989553D01*
X158449125Y-140037172D01*
X158353887Y-140084791D01*
X157972935Y-140084791D01*
X159496744Y-140560981D02*
X158925316Y-140560981D01*
X159211030Y-140560981D02*
X159211030Y-139560981D01*
X159115792Y-139703839D01*
X159020554Y-139799077D01*
X158925316Y-139846696D01*
X160115792Y-139560981D02*
X160211030Y-139560981D01*
X160306268Y-139608601D01*
X160353887Y-139656220D01*
X160401506Y-139751458D01*
X160449125Y-139941934D01*
X160449125Y-140180029D01*
X160401506Y-140370505D01*
X160353887Y-140465743D01*
X160306268Y-140513362D01*
X160211030Y-140560981D01*
X160115792Y-140560981D01*
X160020554Y-140513362D01*
X159972935Y-140465743D01*
X159925316Y-140370505D01*
X159877697Y-140180029D01*
X159877697Y-139941934D01*
X159925316Y-139751458D01*
X159972935Y-139656220D01*
X160020554Y-139608601D01*
X160115792Y-139560981D01*
G04 #@! TO.C,R11*
X154607363Y-140560981D02*
X154274030Y-140084791D01*
X154035935Y-140560981D02*
X154035935Y-139560981D01*
X154416887Y-139560981D01*
X154512125Y-139608601D01*
X154559744Y-139656220D01*
X154607363Y-139751458D01*
X154607363Y-139894315D01*
X154559744Y-139989553D01*
X154512125Y-140037172D01*
X154416887Y-140084791D01*
X154035935Y-140084791D01*
X155559744Y-140560981D02*
X154988316Y-140560981D01*
X155274030Y-140560981D02*
X155274030Y-139560981D01*
X155178792Y-139703839D01*
X155083554Y-139799077D01*
X154988316Y-139846696D01*
X156512125Y-140560981D02*
X155940697Y-140560981D01*
X156226411Y-140560981D02*
X156226411Y-139560981D01*
X156131173Y-139703839D01*
X156035935Y-139799077D01*
X155940697Y-139846696D01*
G04 #@! TO.C,U1*
X160406095Y-119467380D02*
X160406095Y-120276904D01*
X160453714Y-120372142D01*
X160501333Y-120419761D01*
X160596571Y-120467380D01*
X160787047Y-120467380D01*
X160882285Y-120419761D01*
X160929904Y-120372142D01*
X160977523Y-120276904D01*
X160977523Y-119467380D01*
X161977523Y-120467380D02*
X161406095Y-120467380D01*
X161691809Y-120467380D02*
X161691809Y-119467380D01*
X161596571Y-119610238D01*
X161501333Y-119705476D01*
X161406095Y-119753095D01*
G04 #@! TO.C,U2*
X182118095Y-116927380D02*
X182118095Y-117736904D01*
X182165714Y-117832142D01*
X182213333Y-117879761D01*
X182308571Y-117927380D01*
X182499047Y-117927380D01*
X182594285Y-117879761D01*
X182641904Y-117832142D01*
X182689523Y-117736904D01*
X182689523Y-116927380D01*
X183118095Y-117022619D02*
X183165714Y-116975000D01*
X183260952Y-116927380D01*
X183499047Y-116927380D01*
X183594285Y-116975000D01*
X183641904Y-117022619D01*
X183689523Y-117117857D01*
X183689523Y-117213095D01*
X183641904Y-117355952D01*
X183070476Y-117927380D01*
X183689523Y-117927380D01*
G04 #@! TO.C,U3*
X182626095Y-122388380D02*
X182626095Y-123197904D01*
X182673714Y-123293142D01*
X182721333Y-123340761D01*
X182816571Y-123388380D01*
X183007047Y-123388380D01*
X183102285Y-123340761D01*
X183149904Y-123293142D01*
X183197523Y-123197904D01*
X183197523Y-122388380D01*
X183578476Y-122388380D02*
X184197523Y-122388380D01*
X183864190Y-122769333D01*
X184007047Y-122769333D01*
X184102285Y-122816952D01*
X184149904Y-122864571D01*
X184197523Y-122959809D01*
X184197523Y-123197904D01*
X184149904Y-123293142D01*
X184102285Y-123340761D01*
X184007047Y-123388380D01*
X183721333Y-123388380D01*
X183626095Y-123340761D01*
X183578476Y-123293142D01*
G04 #@! TO.C,Y1*
X168211309Y-110726190D02*
X168211309Y-111202380D01*
X167877976Y-110202380D02*
X168211309Y-110726190D01*
X168544642Y-110202380D01*
X169401785Y-111202380D02*
X168830357Y-111202380D01*
X169116071Y-111202380D02*
X169116071Y-110202380D01*
X169020833Y-110345238D01*
X168925595Y-110440476D01*
X168830357Y-110488095D01*
G04 #@! TO.C,J2*
X188444887Y-139433981D02*
X188444887Y-140148267D01*
X188397268Y-140291124D01*
X188302030Y-140386362D01*
X188159173Y-140433981D01*
X188063935Y-140433981D01*
X188873459Y-139529220D02*
X188921078Y-139481601D01*
X189016316Y-139433981D01*
X189254411Y-139433981D01*
X189349649Y-139481601D01*
X189397268Y-139529220D01*
X189444887Y-139624458D01*
X189444887Y-139719696D01*
X189397268Y-139862553D01*
X188825840Y-140433981D01*
X189444887Y-140433981D01*
G04 #@! TD*
M02*
