M48
;DRILL file {KiCad 5.0.1} date Mon 25 Nov 2019 09:23:32 PM CST
;FORMAT={-:-/ absolute / inch / decimal}
FMAT,2
INCH,TZ
T1C0.0130
T2C0.0197
T3C0.0217
T4C0.0394
%
G90
G05
M72
T1
X6.0222Y-4.8061
X6.0572Y-4.6511
X6.0572Y-4.7161
X6.0772Y-5.2111
X6.1872Y-5.0711
X6.2172Y-4.8411
X6.45Y-4.675
X6.45Y-4.83
X6.45Y-5.195
X6.5Y-4.75
X6.525Y-4.83
X6.525Y-5.195
X6.5672Y-5.4311
X6.6Y-5.1946
X6.6522Y-4.9661
X6.6522Y-5.0661
X6.665Y-4.8605
X6.6672Y-5.4311
X6.7172Y-4.6011
X6.7472Y-5.0661
X6.7472Y-5.1311
X6.7572Y-5.4311
X6.8072Y-4.8611
X6.8072Y-5.0111
X6.8272Y-5.4561
X6.8722Y-4.7125
X6.8822Y-4.6511
X6.9372Y-5.3011
X7.0022Y-4.7611
X7.0522Y-4.4011
X7.0522Y-5.4611
X7.0622Y-4.6111
X7.0772Y-5.0961
X7.1072Y-5.1361
X7.1122Y-4.6111
X7.1522Y-4.4016
X7.1872Y-4.7061
X7.1972Y-4.8861
X7.3472Y-5.0011
X7.3472Y-5.1011
X7.3972Y-4.5561
X7.4022Y-5.1111
X7.4192Y-5.1394
X7.4222Y-4.4061
T4
X7.53Y-4.4
X7.53Y-4.5
X7.53Y-4.6
X7.53Y-4.7
X7.53Y-4.8
X7.53Y-4.9
X7.53Y-5.
X7.53Y-5.1
X7.53Y-5.2
X7.53Y-5.3
X7.53Y-5.4
X7.53Y-5.5
T2
X6.0378Y-4.8816G85X6.0122Y-4.8816
G05
X6.0378Y-5.1572G85X6.0122Y-5.1572
G05
T3
X6.1313Y-4.915G85X6.1313Y-4.9269
G05
X6.1313Y-5.1237G85X6.1313Y-5.1119
G05
T0
M30
