G04 #@! TF.GenerationSoftware,KiCad,Pcbnew,5.0.1*
G04 #@! TF.CreationDate,2019-11-25T21:23:25-06:00*
G04 #@! TF.ProjectId,ft2232_board,6674323233325F626F6172642E6B6963,A*
G04 #@! TF.SameCoordinates,Original*
G04 #@! TF.FileFunction,Soldermask,Top*
G04 #@! TF.FilePolarity,Negative*
%FSLAX46Y46*%
G04 Gerber Fmt 4.6, Leading zero omitted, Abs format (unit mm)*
G04 Created by KiCad (PCBNEW 5.0.1) date Mon 25 Nov 2019 09:23:25 PM CST*
%MOMM*%
%LPD*%
G01*
G04 APERTURE LIST*
%ADD10C,0.100000*%
G04 APERTURE END LIST*
D10*
G36*
X191372442Y-138805518D02*
X191438627Y-138812037D01*
X191551853Y-138846384D01*
X191608467Y-138863557D01*
X191698628Y-138911750D01*
X191764991Y-138947222D01*
X191790445Y-138968112D01*
X191902186Y-139059814D01*
X191964709Y-139136000D01*
X192014778Y-139197009D01*
X192014779Y-139197011D01*
X192098443Y-139353533D01*
X192098443Y-139353534D01*
X192149963Y-139523373D01*
X192167359Y-139700000D01*
X192149963Y-139876627D01*
X192115616Y-139989853D01*
X192098443Y-140046467D01*
X192024348Y-140185087D01*
X192014778Y-140202991D01*
X191985448Y-140238729D01*
X191902186Y-140340186D01*
X191800729Y-140423448D01*
X191764991Y-140452778D01*
X191764989Y-140452779D01*
X191608467Y-140536443D01*
X191551853Y-140553616D01*
X191438627Y-140587963D01*
X191372442Y-140594482D01*
X191306260Y-140601000D01*
X191217740Y-140601000D01*
X191151558Y-140594482D01*
X191085373Y-140587963D01*
X190972147Y-140553616D01*
X190915533Y-140536443D01*
X190759011Y-140452779D01*
X190759009Y-140452778D01*
X190723271Y-140423448D01*
X190621814Y-140340186D01*
X190538552Y-140238729D01*
X190509222Y-140202991D01*
X190499652Y-140185087D01*
X190425557Y-140046467D01*
X190408384Y-139989853D01*
X190374037Y-139876627D01*
X190356641Y-139700000D01*
X190374037Y-139523373D01*
X190425557Y-139353534D01*
X190425557Y-139353533D01*
X190509221Y-139197011D01*
X190509222Y-139197009D01*
X190559291Y-139136000D01*
X190621814Y-139059814D01*
X190733555Y-138968112D01*
X190759009Y-138947222D01*
X190825372Y-138911750D01*
X190915533Y-138863557D01*
X190972147Y-138846384D01*
X191085373Y-138812037D01*
X191151558Y-138805518D01*
X191217740Y-138799000D01*
X191306260Y-138799000D01*
X191372442Y-138805518D01*
X191372442Y-138805518D01*
G37*
G36*
X171937938Y-138569716D02*
X171958556Y-138575970D01*
X171977556Y-138586126D01*
X171994208Y-138599792D01*
X172007874Y-138616444D01*
X172018030Y-138635444D01*
X172024284Y-138656062D01*
X172027000Y-138683640D01*
X172027000Y-139192360D01*
X172024284Y-139219938D01*
X172018030Y-139240556D01*
X172007874Y-139259556D01*
X171994208Y-139276208D01*
X171977556Y-139289874D01*
X171958556Y-139300030D01*
X171937938Y-139306284D01*
X171910360Y-139309000D01*
X171451640Y-139309000D01*
X171424062Y-139306284D01*
X171403444Y-139300030D01*
X171384444Y-139289874D01*
X171367792Y-139276208D01*
X171354126Y-139259556D01*
X171343970Y-139240556D01*
X171337716Y-139219938D01*
X171335000Y-139192360D01*
X171335000Y-138683640D01*
X171337716Y-138656062D01*
X171343970Y-138635444D01*
X171354126Y-138616444D01*
X171367792Y-138599792D01*
X171384444Y-138586126D01*
X171403444Y-138575970D01*
X171424062Y-138569716D01*
X171451640Y-138567000D01*
X171910360Y-138567000D01*
X171937938Y-138569716D01*
X171937938Y-138569716D01*
G37*
G36*
X166164938Y-138569716D02*
X166185556Y-138575970D01*
X166204556Y-138586126D01*
X166221208Y-138599792D01*
X166234874Y-138616444D01*
X166245030Y-138635444D01*
X166251284Y-138656062D01*
X166254000Y-138683640D01*
X166254000Y-139192360D01*
X166251284Y-139219938D01*
X166245030Y-139240556D01*
X166234874Y-139259556D01*
X166221208Y-139276208D01*
X166204556Y-139289874D01*
X166185556Y-139300030D01*
X166164938Y-139306284D01*
X166137360Y-139309000D01*
X165678640Y-139309000D01*
X165651062Y-139306284D01*
X165630444Y-139300030D01*
X165611444Y-139289874D01*
X165594792Y-139276208D01*
X165581126Y-139259556D01*
X165570970Y-139240556D01*
X165564716Y-139219938D01*
X165562000Y-139192360D01*
X165562000Y-138683640D01*
X165564716Y-138656062D01*
X165570970Y-138635444D01*
X165581126Y-138616444D01*
X165594792Y-138599792D01*
X165611444Y-138586126D01*
X165630444Y-138575970D01*
X165651062Y-138569716D01*
X165678640Y-138567000D01*
X166137360Y-138567000D01*
X166164938Y-138569716D01*
X166164938Y-138569716D01*
G37*
G36*
X167134938Y-138569716D02*
X167155556Y-138575970D01*
X167174556Y-138586126D01*
X167191208Y-138599792D01*
X167204874Y-138616444D01*
X167215030Y-138635444D01*
X167221284Y-138656062D01*
X167224000Y-138683640D01*
X167224000Y-139192360D01*
X167221284Y-139219938D01*
X167215030Y-139240556D01*
X167204874Y-139259556D01*
X167191208Y-139276208D01*
X167174556Y-139289874D01*
X167155556Y-139300030D01*
X167134938Y-139306284D01*
X167107360Y-139309000D01*
X166648640Y-139309000D01*
X166621062Y-139306284D01*
X166600444Y-139300030D01*
X166581444Y-139289874D01*
X166564792Y-139276208D01*
X166551126Y-139259556D01*
X166540970Y-139240556D01*
X166534716Y-139219938D01*
X166532000Y-139192360D01*
X166532000Y-138683640D01*
X166534716Y-138656062D01*
X166540970Y-138635444D01*
X166551126Y-138616444D01*
X166564792Y-138599792D01*
X166581444Y-138586126D01*
X166600444Y-138575970D01*
X166621062Y-138569716D01*
X166648640Y-138567000D01*
X167107360Y-138567000D01*
X167134938Y-138569716D01*
X167134938Y-138569716D01*
G37*
G36*
X169628938Y-138569716D02*
X169649556Y-138575970D01*
X169668556Y-138586126D01*
X169685208Y-138599792D01*
X169698874Y-138616444D01*
X169709030Y-138635444D01*
X169715284Y-138656062D01*
X169718000Y-138683640D01*
X169718000Y-139192360D01*
X169715284Y-139219938D01*
X169709030Y-139240556D01*
X169698874Y-139259556D01*
X169685208Y-139276208D01*
X169668556Y-139289874D01*
X169649556Y-139300030D01*
X169628938Y-139306284D01*
X169601360Y-139309000D01*
X169142640Y-139309000D01*
X169115062Y-139306284D01*
X169094444Y-139300030D01*
X169075444Y-139289874D01*
X169058792Y-139276208D01*
X169045126Y-139259556D01*
X169034970Y-139240556D01*
X169028716Y-139219938D01*
X169026000Y-139192360D01*
X169026000Y-138683640D01*
X169028716Y-138656062D01*
X169034970Y-138635444D01*
X169045126Y-138616444D01*
X169058792Y-138599792D01*
X169075444Y-138586126D01*
X169094444Y-138575970D01*
X169115062Y-138569716D01*
X169142640Y-138567000D01*
X169601360Y-138567000D01*
X169628938Y-138569716D01*
X169628938Y-138569716D01*
G37*
G36*
X170967938Y-138569716D02*
X170988556Y-138575970D01*
X171007556Y-138586126D01*
X171024208Y-138599792D01*
X171037874Y-138616444D01*
X171048030Y-138635444D01*
X171054284Y-138656062D01*
X171057000Y-138683640D01*
X171057000Y-139192360D01*
X171054284Y-139219938D01*
X171048030Y-139240556D01*
X171037874Y-139259556D01*
X171024208Y-139276208D01*
X171007556Y-139289874D01*
X170988556Y-139300030D01*
X170967938Y-139306284D01*
X170940360Y-139309000D01*
X170481640Y-139309000D01*
X170454062Y-139306284D01*
X170433444Y-139300030D01*
X170414444Y-139289874D01*
X170397792Y-139276208D01*
X170384126Y-139259556D01*
X170373970Y-139240556D01*
X170367716Y-139219938D01*
X170365000Y-139192360D01*
X170365000Y-138683640D01*
X170367716Y-138656062D01*
X170373970Y-138635444D01*
X170384126Y-138616444D01*
X170397792Y-138599792D01*
X170414444Y-138586126D01*
X170433444Y-138575970D01*
X170454062Y-138569716D01*
X170481640Y-138567000D01*
X170940360Y-138567000D01*
X170967938Y-138569716D01*
X170967938Y-138569716D01*
G37*
G36*
X168658938Y-138569716D02*
X168679556Y-138575970D01*
X168698556Y-138586126D01*
X168715208Y-138599792D01*
X168728874Y-138616444D01*
X168739030Y-138635444D01*
X168745284Y-138656062D01*
X168748000Y-138683640D01*
X168748000Y-139192360D01*
X168745284Y-139219938D01*
X168739030Y-139240556D01*
X168728874Y-139259556D01*
X168715208Y-139276208D01*
X168698556Y-139289874D01*
X168679556Y-139300030D01*
X168658938Y-139306284D01*
X168631360Y-139309000D01*
X168172640Y-139309000D01*
X168145062Y-139306284D01*
X168124444Y-139300030D01*
X168105444Y-139289874D01*
X168088792Y-139276208D01*
X168075126Y-139259556D01*
X168064970Y-139240556D01*
X168058716Y-139219938D01*
X168056000Y-139192360D01*
X168056000Y-138683640D01*
X168058716Y-138656062D01*
X168064970Y-138635444D01*
X168075126Y-138616444D01*
X168088792Y-138599792D01*
X168105444Y-138586126D01*
X168124444Y-138575970D01*
X168145062Y-138569716D01*
X168172640Y-138567000D01*
X168631360Y-138567000D01*
X168658938Y-138569716D01*
X168658938Y-138569716D01*
G37*
G36*
X158516966Y-137683565D02*
X158555637Y-137695296D01*
X158591279Y-137714348D01*
X158622517Y-137739983D01*
X158648152Y-137771221D01*
X158667204Y-137806863D01*
X158678935Y-137845534D01*
X158683500Y-137891888D01*
X158683500Y-138968112D01*
X158678935Y-139014466D01*
X158667204Y-139053137D01*
X158648152Y-139088779D01*
X158622517Y-139120017D01*
X158591279Y-139145652D01*
X158555637Y-139164704D01*
X158516966Y-139176435D01*
X158470612Y-139181000D01*
X157819388Y-139181000D01*
X157773034Y-139176435D01*
X157734363Y-139164704D01*
X157698721Y-139145652D01*
X157667483Y-139120017D01*
X157641848Y-139088779D01*
X157622796Y-139053137D01*
X157611065Y-139014466D01*
X157606500Y-138968112D01*
X157606500Y-137891888D01*
X157611065Y-137845534D01*
X157622796Y-137806863D01*
X157641848Y-137771221D01*
X157667483Y-137739983D01*
X157698721Y-137714348D01*
X157734363Y-137695296D01*
X157773034Y-137683565D01*
X157819388Y-137679000D01*
X158470612Y-137679000D01*
X158516966Y-137683565D01*
X158516966Y-137683565D01*
G37*
G36*
X154706966Y-137683565D02*
X154745637Y-137695296D01*
X154781279Y-137714348D01*
X154812517Y-137739983D01*
X154838152Y-137771221D01*
X154857204Y-137806863D01*
X154868935Y-137845534D01*
X154873500Y-137891888D01*
X154873500Y-138968112D01*
X154868935Y-139014466D01*
X154857204Y-139053137D01*
X154838152Y-139088779D01*
X154812517Y-139120017D01*
X154781279Y-139145652D01*
X154745637Y-139164704D01*
X154706966Y-139176435D01*
X154660612Y-139181000D01*
X154009388Y-139181000D01*
X153963034Y-139176435D01*
X153924363Y-139164704D01*
X153888721Y-139145652D01*
X153857483Y-139120017D01*
X153831848Y-139088779D01*
X153812796Y-139053137D01*
X153801065Y-139014466D01*
X153796500Y-138968112D01*
X153796500Y-137891888D01*
X153801065Y-137845534D01*
X153812796Y-137806863D01*
X153831848Y-137771221D01*
X153857483Y-137739983D01*
X153888721Y-137714348D01*
X153924363Y-137695296D01*
X153963034Y-137683565D01*
X154009388Y-137679000D01*
X154660612Y-137679000D01*
X154706966Y-137683565D01*
X154706966Y-137683565D01*
G37*
G36*
X156581966Y-137683565D02*
X156620637Y-137695296D01*
X156656279Y-137714348D01*
X156687517Y-137739983D01*
X156713152Y-137771221D01*
X156732204Y-137806863D01*
X156743935Y-137845534D01*
X156748500Y-137891888D01*
X156748500Y-138968112D01*
X156743935Y-139014466D01*
X156732204Y-139053137D01*
X156713152Y-139088779D01*
X156687517Y-139120017D01*
X156656279Y-139145652D01*
X156620637Y-139164704D01*
X156581966Y-139176435D01*
X156535612Y-139181000D01*
X155884388Y-139181000D01*
X155838034Y-139176435D01*
X155799363Y-139164704D01*
X155763721Y-139145652D01*
X155732483Y-139120017D01*
X155706848Y-139088779D01*
X155687796Y-139053137D01*
X155676065Y-139014466D01*
X155671500Y-138968112D01*
X155671500Y-137891888D01*
X155676065Y-137845534D01*
X155687796Y-137806863D01*
X155706848Y-137771221D01*
X155732483Y-137739983D01*
X155763721Y-137714348D01*
X155799363Y-137695296D01*
X155838034Y-137683565D01*
X155884388Y-137679000D01*
X156535612Y-137679000D01*
X156581966Y-137683565D01*
X156581966Y-137683565D01*
G37*
G36*
X160391966Y-137683565D02*
X160430637Y-137695296D01*
X160466279Y-137714348D01*
X160497517Y-137739983D01*
X160523152Y-137771221D01*
X160542204Y-137806863D01*
X160553935Y-137845534D01*
X160558500Y-137891888D01*
X160558500Y-138968112D01*
X160553935Y-139014466D01*
X160542204Y-139053137D01*
X160523152Y-139088779D01*
X160497517Y-139120017D01*
X160466279Y-139145652D01*
X160430637Y-139164704D01*
X160391966Y-139176435D01*
X160345612Y-139181000D01*
X159694388Y-139181000D01*
X159648034Y-139176435D01*
X159609363Y-139164704D01*
X159573721Y-139145652D01*
X159542483Y-139120017D01*
X159516848Y-139088779D01*
X159497796Y-139053137D01*
X159486065Y-139014466D01*
X159481500Y-138968112D01*
X159481500Y-137891888D01*
X159486065Y-137845534D01*
X159497796Y-137806863D01*
X159516848Y-137771221D01*
X159542483Y-137739983D01*
X159573721Y-137714348D01*
X159609363Y-137695296D01*
X159648034Y-137683565D01*
X159694388Y-137679000D01*
X160345612Y-137679000D01*
X160391966Y-137683565D01*
X160391966Y-137683565D01*
G37*
G36*
X162326966Y-137683565D02*
X162365637Y-137695296D01*
X162401279Y-137714348D01*
X162432517Y-137739983D01*
X162458152Y-137771221D01*
X162477204Y-137806863D01*
X162488935Y-137845534D01*
X162493500Y-137891888D01*
X162493500Y-138968112D01*
X162488935Y-139014466D01*
X162477204Y-139053137D01*
X162458152Y-139088779D01*
X162432517Y-139120017D01*
X162401279Y-139145652D01*
X162365637Y-139164704D01*
X162326966Y-139176435D01*
X162280612Y-139181000D01*
X161629388Y-139181000D01*
X161583034Y-139176435D01*
X161544363Y-139164704D01*
X161508721Y-139145652D01*
X161477483Y-139120017D01*
X161451848Y-139088779D01*
X161432796Y-139053137D01*
X161421065Y-139014466D01*
X161416500Y-138968112D01*
X161416500Y-137891888D01*
X161421065Y-137845534D01*
X161432796Y-137806863D01*
X161451848Y-137771221D01*
X161477483Y-137739983D01*
X161508721Y-137714348D01*
X161544363Y-137695296D01*
X161583034Y-137683565D01*
X161629388Y-137679000D01*
X162280612Y-137679000D01*
X162326966Y-137683565D01*
X162326966Y-137683565D01*
G37*
G36*
X164201966Y-137683565D02*
X164240637Y-137695296D01*
X164276279Y-137714348D01*
X164307517Y-137739983D01*
X164333152Y-137771221D01*
X164352204Y-137806863D01*
X164363935Y-137845534D01*
X164368500Y-137891888D01*
X164368500Y-138968112D01*
X164363935Y-139014466D01*
X164352204Y-139053137D01*
X164333152Y-139088779D01*
X164307517Y-139120017D01*
X164276279Y-139145652D01*
X164240637Y-139164704D01*
X164201966Y-139176435D01*
X164155612Y-139181000D01*
X163504388Y-139181000D01*
X163458034Y-139176435D01*
X163419363Y-139164704D01*
X163383721Y-139145652D01*
X163352483Y-139120017D01*
X163326848Y-139088779D01*
X163307796Y-139053137D01*
X163296065Y-139014466D01*
X163291500Y-138968112D01*
X163291500Y-137891888D01*
X163296065Y-137845534D01*
X163307796Y-137806863D01*
X163326848Y-137771221D01*
X163352483Y-137739983D01*
X163383721Y-137714348D01*
X163419363Y-137695296D01*
X163458034Y-137683565D01*
X163504388Y-137679000D01*
X164155612Y-137679000D01*
X164201966Y-137683565D01*
X164201966Y-137683565D01*
G37*
G36*
X191372443Y-136265519D02*
X191438627Y-136272037D01*
X191551853Y-136306384D01*
X191608467Y-136323557D01*
X191747087Y-136397652D01*
X191764991Y-136407222D01*
X191800729Y-136436552D01*
X191902186Y-136519814D01*
X191985448Y-136621271D01*
X192014778Y-136657009D01*
X192014779Y-136657011D01*
X192098443Y-136813533D01*
X192098443Y-136813534D01*
X192149963Y-136983373D01*
X192167359Y-137160000D01*
X192149963Y-137336627D01*
X192115616Y-137449853D01*
X192098443Y-137506467D01*
X192024348Y-137645087D01*
X192014778Y-137662991D01*
X191997893Y-137683565D01*
X191902186Y-137800186D01*
X191803302Y-137881337D01*
X191764991Y-137912778D01*
X191764989Y-137912779D01*
X191608467Y-137996443D01*
X191593444Y-138001000D01*
X191438627Y-138047963D01*
X191372442Y-138054482D01*
X191306260Y-138061000D01*
X191217740Y-138061000D01*
X191151558Y-138054482D01*
X191085373Y-138047963D01*
X190930556Y-138001000D01*
X190915533Y-137996443D01*
X190759011Y-137912779D01*
X190759009Y-137912778D01*
X190720698Y-137881337D01*
X190621814Y-137800186D01*
X190526107Y-137683565D01*
X190509222Y-137662991D01*
X190499652Y-137645087D01*
X190425557Y-137506467D01*
X190408384Y-137449853D01*
X190374037Y-137336627D01*
X190356641Y-137160000D01*
X190374037Y-136983373D01*
X190425557Y-136813534D01*
X190425557Y-136813533D01*
X190509221Y-136657011D01*
X190509222Y-136657009D01*
X190538552Y-136621271D01*
X190621814Y-136519814D01*
X190723271Y-136436552D01*
X190759009Y-136407222D01*
X190776913Y-136397652D01*
X190915533Y-136323557D01*
X190972147Y-136306384D01*
X191085373Y-136272037D01*
X191151557Y-136265519D01*
X191217740Y-136259000D01*
X191306260Y-136259000D01*
X191372443Y-136265519D01*
X191372443Y-136265519D01*
G37*
G36*
X173939466Y-136928565D02*
X173978137Y-136940296D01*
X174013779Y-136959348D01*
X174045017Y-136984983D01*
X174070652Y-137016221D01*
X174089704Y-137051863D01*
X174101435Y-137090534D01*
X174106000Y-137136888D01*
X174106000Y-137788112D01*
X174101435Y-137834466D01*
X174089704Y-137873137D01*
X174070652Y-137908779D01*
X174045017Y-137940017D01*
X174013779Y-137965652D01*
X173978137Y-137984704D01*
X173939466Y-137996435D01*
X173893112Y-138001000D01*
X172816888Y-138001000D01*
X172770534Y-137996435D01*
X172731863Y-137984704D01*
X172696221Y-137965652D01*
X172664983Y-137940017D01*
X172639348Y-137908779D01*
X172620296Y-137873137D01*
X172608565Y-137834466D01*
X172604000Y-137788112D01*
X172604000Y-137136888D01*
X172608565Y-137090534D01*
X172620296Y-137051863D01*
X172639348Y-137016221D01*
X172664983Y-136984983D01*
X172696221Y-136959348D01*
X172731863Y-136940296D01*
X172770534Y-136928565D01*
X172816888Y-136924000D01*
X173893112Y-136924000D01*
X173939466Y-136928565D01*
X173939466Y-136928565D01*
G37*
G36*
X179654466Y-136928565D02*
X179693137Y-136940296D01*
X179728779Y-136959348D01*
X179760017Y-136984983D01*
X179785652Y-137016221D01*
X179804704Y-137051863D01*
X179816435Y-137090534D01*
X179821000Y-137136888D01*
X179821000Y-137788112D01*
X179816435Y-137834466D01*
X179804704Y-137873137D01*
X179785652Y-137908779D01*
X179760017Y-137940017D01*
X179728779Y-137965652D01*
X179693137Y-137984704D01*
X179654466Y-137996435D01*
X179608112Y-138001000D01*
X178531888Y-138001000D01*
X178485534Y-137996435D01*
X178446863Y-137984704D01*
X178411221Y-137965652D01*
X178379983Y-137940017D01*
X178354348Y-137908779D01*
X178335296Y-137873137D01*
X178323565Y-137834466D01*
X178319000Y-137788112D01*
X178319000Y-137136888D01*
X178323565Y-137090534D01*
X178335296Y-137051863D01*
X178354348Y-137016221D01*
X178379983Y-136984983D01*
X178411221Y-136959348D01*
X178446863Y-136940296D01*
X178485534Y-136928565D01*
X178531888Y-136924000D01*
X179608112Y-136924000D01*
X179654466Y-136928565D01*
X179654466Y-136928565D01*
G37*
G36*
X155706000Y-137121000D02*
X154804000Y-137121000D01*
X154804000Y-136119000D01*
X155706000Y-136119000D01*
X155706000Y-137121000D01*
X155706000Y-137121000D01*
G37*
G36*
X159516000Y-137121000D02*
X158614000Y-137121000D01*
X158614000Y-136119000D01*
X159516000Y-136119000D01*
X159516000Y-137121000D01*
X159516000Y-137121000D01*
G37*
G36*
X163331000Y-137121000D02*
X162429000Y-137121000D01*
X162429000Y-136119000D01*
X163331000Y-136119000D01*
X163331000Y-137121000D01*
X163331000Y-137121000D01*
G37*
G36*
X179654466Y-135053565D02*
X179693137Y-135065296D01*
X179728779Y-135084348D01*
X179760017Y-135109983D01*
X179785652Y-135141221D01*
X179804704Y-135176863D01*
X179816435Y-135215534D01*
X179821000Y-135261888D01*
X179821000Y-135913112D01*
X179816435Y-135959466D01*
X179804704Y-135998137D01*
X179785652Y-136033779D01*
X179760017Y-136065017D01*
X179728779Y-136090652D01*
X179693137Y-136109704D01*
X179654466Y-136121435D01*
X179608112Y-136126000D01*
X178531888Y-136126000D01*
X178485534Y-136121435D01*
X178446863Y-136109704D01*
X178411221Y-136090652D01*
X178379983Y-136065017D01*
X178354348Y-136033779D01*
X178335296Y-135998137D01*
X178323565Y-135959466D01*
X178319000Y-135913112D01*
X178319000Y-135261888D01*
X178323565Y-135215534D01*
X178335296Y-135176863D01*
X178354348Y-135141221D01*
X178379983Y-135109983D01*
X178411221Y-135084348D01*
X178446863Y-135065296D01*
X178485534Y-135053565D01*
X178531888Y-135049000D01*
X179608112Y-135049000D01*
X179654466Y-135053565D01*
X179654466Y-135053565D01*
G37*
G36*
X173939466Y-135053565D02*
X173978137Y-135065296D01*
X174013779Y-135084348D01*
X174045017Y-135109983D01*
X174070652Y-135141221D01*
X174089704Y-135176863D01*
X174101435Y-135215534D01*
X174106000Y-135261888D01*
X174106000Y-135913112D01*
X174101435Y-135959466D01*
X174089704Y-135998137D01*
X174070652Y-136033779D01*
X174045017Y-136065017D01*
X174013779Y-136090652D01*
X173978137Y-136109704D01*
X173939466Y-136121435D01*
X173893112Y-136126000D01*
X172816888Y-136126000D01*
X172770534Y-136121435D01*
X172731863Y-136109704D01*
X172696221Y-136090652D01*
X172664983Y-136065017D01*
X172639348Y-136033779D01*
X172620296Y-135998137D01*
X172608565Y-135959466D01*
X172604000Y-135913112D01*
X172604000Y-135261888D01*
X172608565Y-135215534D01*
X172620296Y-135176863D01*
X172639348Y-135141221D01*
X172664983Y-135109983D01*
X172696221Y-135084348D01*
X172731863Y-135065296D01*
X172770534Y-135053565D01*
X172816888Y-135049000D01*
X173893112Y-135049000D01*
X173939466Y-135053565D01*
X173939466Y-135053565D01*
G37*
G36*
X169767687Y-134409166D02*
X169806358Y-134420897D01*
X169842000Y-134439949D01*
X169873238Y-134465584D01*
X169898873Y-134496822D01*
X169917925Y-134532464D01*
X169929656Y-134571135D01*
X169934221Y-134617489D01*
X169934221Y-135693713D01*
X169929656Y-135740067D01*
X169917925Y-135778738D01*
X169898873Y-135814380D01*
X169873238Y-135845618D01*
X169842000Y-135871253D01*
X169806358Y-135890305D01*
X169767687Y-135902036D01*
X169721333Y-135906601D01*
X169070109Y-135906601D01*
X169023755Y-135902036D01*
X168985084Y-135890305D01*
X168949442Y-135871253D01*
X168918204Y-135845618D01*
X168892569Y-135814380D01*
X168873517Y-135778738D01*
X168861786Y-135740067D01*
X168857221Y-135693713D01*
X168857221Y-134617489D01*
X168861786Y-134571135D01*
X168873517Y-134532464D01*
X168892569Y-134496822D01*
X168918204Y-134465584D01*
X168949442Y-134439949D01*
X168985084Y-134420897D01*
X169023755Y-134409166D01*
X169070109Y-134404601D01*
X169721333Y-134404601D01*
X169767687Y-134409166D01*
X169767687Y-134409166D01*
G37*
G36*
X167892687Y-134409166D02*
X167931358Y-134420897D01*
X167967000Y-134439949D01*
X167998238Y-134465584D01*
X168023873Y-134496822D01*
X168042925Y-134532464D01*
X168054656Y-134571135D01*
X168059221Y-134617489D01*
X168059221Y-135693713D01*
X168054656Y-135740067D01*
X168042925Y-135778738D01*
X168023873Y-135814380D01*
X167998238Y-135845618D01*
X167967000Y-135871253D01*
X167931358Y-135890305D01*
X167892687Y-135902036D01*
X167846333Y-135906601D01*
X167195109Y-135906601D01*
X167148755Y-135902036D01*
X167110084Y-135890305D01*
X167074442Y-135871253D01*
X167043204Y-135845618D01*
X167017569Y-135814380D01*
X166998517Y-135778738D01*
X166986786Y-135740067D01*
X166982221Y-135693713D01*
X166982221Y-134617489D01*
X166986786Y-134571135D01*
X166998517Y-134532464D01*
X167017569Y-134496822D01*
X167043204Y-134465584D01*
X167074442Y-134439949D01*
X167110084Y-134420897D01*
X167148755Y-134409166D01*
X167195109Y-134404601D01*
X167846333Y-134404601D01*
X167892687Y-134409166D01*
X167892687Y-134409166D01*
G37*
G36*
X191372443Y-133725519D02*
X191438627Y-133732037D01*
X191551853Y-133766384D01*
X191608467Y-133783557D01*
X191747087Y-133857652D01*
X191764991Y-133867222D01*
X191800729Y-133896552D01*
X191902186Y-133979814D01*
X191985448Y-134081271D01*
X192014778Y-134117009D01*
X192014779Y-134117011D01*
X192098443Y-134273533D01*
X192098443Y-134273534D01*
X192149963Y-134443373D01*
X192167359Y-134620000D01*
X192149963Y-134796627D01*
X192115616Y-134909853D01*
X192098443Y-134966467D01*
X192035433Y-135084348D01*
X192014778Y-135122991D01*
X192010781Y-135127861D01*
X191902186Y-135260186D01*
X191800729Y-135343448D01*
X191764991Y-135372778D01*
X191764989Y-135372779D01*
X191608467Y-135456443D01*
X191551853Y-135473616D01*
X191438627Y-135507963D01*
X191372443Y-135514481D01*
X191306260Y-135521000D01*
X191217740Y-135521000D01*
X191151557Y-135514481D01*
X191085373Y-135507963D01*
X190972147Y-135473616D01*
X190915533Y-135456443D01*
X190759011Y-135372779D01*
X190759009Y-135372778D01*
X190723271Y-135343448D01*
X190621814Y-135260186D01*
X190513219Y-135127861D01*
X190509222Y-135122991D01*
X190488567Y-135084348D01*
X190425557Y-134966467D01*
X190408384Y-134909853D01*
X190374037Y-134796627D01*
X190356641Y-134620000D01*
X190374037Y-134443373D01*
X190425557Y-134273534D01*
X190425557Y-134273533D01*
X190509221Y-134117011D01*
X190509222Y-134117009D01*
X190538552Y-134081271D01*
X190621814Y-133979814D01*
X190723271Y-133896552D01*
X190759009Y-133867222D01*
X190776913Y-133857652D01*
X190915533Y-133783557D01*
X190972147Y-133766384D01*
X191085373Y-133732037D01*
X191151557Y-133725519D01*
X191217740Y-133719000D01*
X191306260Y-133719000D01*
X191372443Y-133725519D01*
X191372443Y-133725519D01*
G37*
G36*
X158566000Y-135121000D02*
X157664000Y-135121000D01*
X157664000Y-134119000D01*
X158566000Y-134119000D01*
X158566000Y-135121000D01*
X158566000Y-135121000D01*
G37*
G36*
X164281000Y-135121000D02*
X163379000Y-135121000D01*
X163379000Y-134119000D01*
X164281000Y-134119000D01*
X164281000Y-135121000D01*
X164281000Y-135121000D01*
G37*
G36*
X160466000Y-135121000D02*
X159564000Y-135121000D01*
X159564000Y-134119000D01*
X160466000Y-134119000D01*
X160466000Y-135121000D01*
X160466000Y-135121000D01*
G37*
G36*
X154756000Y-135121000D02*
X153854000Y-135121000D01*
X153854000Y-134119000D01*
X154756000Y-134119000D01*
X154756000Y-135121000D01*
X154756000Y-135121000D01*
G37*
G36*
X156656000Y-135121000D02*
X155754000Y-135121000D01*
X155754000Y-134119000D01*
X156656000Y-134119000D01*
X156656000Y-135121000D01*
X156656000Y-135121000D01*
G37*
G36*
X162381000Y-135121000D02*
X161479000Y-135121000D01*
X161479000Y-134119000D01*
X162381000Y-134119000D01*
X162381000Y-135121000D01*
X162381000Y-135121000D01*
G37*
G36*
X179806000Y-134001000D02*
X171954000Y-134001000D01*
X171954000Y-132899000D01*
X179806000Y-132899000D01*
X179806000Y-134001000D01*
X179806000Y-134001000D01*
G37*
G36*
X191363645Y-131184652D02*
X191438627Y-131192037D01*
X191551508Y-131226279D01*
X191608467Y-131243557D01*
X191718186Y-131302204D01*
X191764991Y-131327222D01*
X191790277Y-131347974D01*
X191902186Y-131439814D01*
X191985448Y-131541271D01*
X192014778Y-131577009D01*
X192014779Y-131577011D01*
X192098443Y-131733533D01*
X192098443Y-131733534D01*
X192149963Y-131903373D01*
X192167359Y-132080000D01*
X192149963Y-132256627D01*
X192115616Y-132369853D01*
X192098443Y-132426467D01*
X192024348Y-132565087D01*
X192014778Y-132582991D01*
X191985448Y-132618729D01*
X191902186Y-132720186D01*
X191800729Y-132803448D01*
X191764991Y-132832778D01*
X191764989Y-132832779D01*
X191608467Y-132916443D01*
X191551853Y-132933616D01*
X191438627Y-132967963D01*
X191372443Y-132974481D01*
X191306260Y-132981000D01*
X191217740Y-132981000D01*
X191151557Y-132974481D01*
X191085373Y-132967963D01*
X190972147Y-132933616D01*
X190915533Y-132916443D01*
X190759011Y-132832779D01*
X190759009Y-132832778D01*
X190723271Y-132803448D01*
X190621814Y-132720186D01*
X190538552Y-132618729D01*
X190509222Y-132582991D01*
X190499652Y-132565087D01*
X190425557Y-132426467D01*
X190408384Y-132369853D01*
X190374037Y-132256627D01*
X190356641Y-132080000D01*
X190374037Y-131903373D01*
X190425557Y-131733534D01*
X190425557Y-131733533D01*
X190509221Y-131577011D01*
X190509222Y-131577009D01*
X190538552Y-131541271D01*
X190621814Y-131439814D01*
X190733723Y-131347974D01*
X190759009Y-131327222D01*
X190805814Y-131302204D01*
X190915533Y-131243557D01*
X190972492Y-131226279D01*
X191085373Y-131192037D01*
X191160355Y-131184652D01*
X191217740Y-131179000D01*
X191306260Y-131179000D01*
X191363645Y-131184652D01*
X191363645Y-131184652D01*
G37*
G36*
X182131000Y-131676000D02*
X181029000Y-131676000D01*
X181029000Y-123824000D01*
X182131000Y-123824000D01*
X182131000Y-131676000D01*
X182131000Y-131676000D01*
G37*
G36*
X170731000Y-131676000D02*
X169629000Y-131676000D01*
X169629000Y-123824000D01*
X170731000Y-123824000D01*
X170731000Y-131676000D01*
X170731000Y-131676000D01*
G37*
G36*
X153861000Y-130961257D02*
X153861601Y-130973492D01*
X153863424Y-130992000D01*
X153861601Y-131010508D01*
X153861000Y-131022743D01*
X153861000Y-131093490D01*
X153856844Y-131098554D01*
X153845293Y-131120165D01*
X153841169Y-131131689D01*
X153825103Y-131184652D01*
X153778582Y-131271687D01*
X153715975Y-131347975D01*
X153639687Y-131410582D01*
X153552652Y-131457103D01*
X153458213Y-131485751D01*
X153384612Y-131493000D01*
X152685388Y-131493000D01*
X152611787Y-131485751D01*
X152517348Y-131457103D01*
X152430313Y-131410582D01*
X152354025Y-131347975D01*
X152291418Y-131271687D01*
X152244897Y-131184652D01*
X152228835Y-131131702D01*
X152219462Y-131109076D01*
X152209000Y-131093417D01*
X152209000Y-131022743D01*
X152208399Y-131010508D01*
X152206576Y-130992000D01*
X152208399Y-130973492D01*
X152209000Y-130961257D01*
X152209000Y-129741000D01*
X153861000Y-129741000D01*
X153861000Y-130961257D01*
X153861000Y-130961257D01*
G37*
G36*
X166319466Y-130246065D02*
X166358137Y-130257796D01*
X166393779Y-130276848D01*
X166425017Y-130302483D01*
X166450652Y-130333721D01*
X166469704Y-130369363D01*
X166481435Y-130408034D01*
X166486000Y-130454388D01*
X166486000Y-131105612D01*
X166481435Y-131151966D01*
X166469704Y-131190637D01*
X166450652Y-131226279D01*
X166425017Y-131257517D01*
X166393779Y-131283152D01*
X166358137Y-131302204D01*
X166319466Y-131313935D01*
X166273112Y-131318500D01*
X165196888Y-131318500D01*
X165150534Y-131313935D01*
X165111863Y-131302204D01*
X165076221Y-131283152D01*
X165044983Y-131257517D01*
X165019348Y-131226279D01*
X165000296Y-131190637D01*
X164988565Y-131151966D01*
X164984000Y-131105612D01*
X164984000Y-130454388D01*
X164988565Y-130408034D01*
X165000296Y-130369363D01*
X165019348Y-130333721D01*
X165044983Y-130302483D01*
X165076221Y-130276848D01*
X165111863Y-130257796D01*
X165150534Y-130246065D01*
X165196888Y-130241500D01*
X166273112Y-130241500D01*
X166319466Y-130246065D01*
X166319466Y-130246065D01*
G37*
G36*
X164414466Y-130246065D02*
X164453137Y-130257796D01*
X164488779Y-130276848D01*
X164520017Y-130302483D01*
X164545652Y-130333721D01*
X164564704Y-130369363D01*
X164576435Y-130408034D01*
X164581000Y-130454388D01*
X164581000Y-131105612D01*
X164576435Y-131151966D01*
X164564704Y-131190637D01*
X164545652Y-131226279D01*
X164520017Y-131257517D01*
X164488779Y-131283152D01*
X164453137Y-131302204D01*
X164414466Y-131313935D01*
X164368112Y-131318500D01*
X163291888Y-131318500D01*
X163245534Y-131313935D01*
X163206863Y-131302204D01*
X163171221Y-131283152D01*
X163139983Y-131257517D01*
X163114348Y-131226279D01*
X163095296Y-131190637D01*
X163083565Y-131151966D01*
X163079000Y-131105612D01*
X163079000Y-130454388D01*
X163083565Y-130408034D01*
X163095296Y-130369363D01*
X163114348Y-130333721D01*
X163139983Y-130302483D01*
X163171221Y-130276848D01*
X163206863Y-130257796D01*
X163245534Y-130246065D01*
X163291888Y-130241500D01*
X164368112Y-130241500D01*
X164414466Y-130246065D01*
X164414466Y-130246065D01*
G37*
G36*
X168224466Y-130246065D02*
X168263137Y-130257796D01*
X168298779Y-130276848D01*
X168330017Y-130302483D01*
X168355652Y-130333721D01*
X168374704Y-130369363D01*
X168386435Y-130408034D01*
X168391000Y-130454388D01*
X168391000Y-131105612D01*
X168386435Y-131151966D01*
X168374704Y-131190637D01*
X168355652Y-131226279D01*
X168330017Y-131257517D01*
X168298779Y-131283152D01*
X168263137Y-131302204D01*
X168224466Y-131313935D01*
X168178112Y-131318500D01*
X167101888Y-131318500D01*
X167055534Y-131313935D01*
X167016863Y-131302204D01*
X166981221Y-131283152D01*
X166949983Y-131257517D01*
X166924348Y-131226279D01*
X166905296Y-131190637D01*
X166893565Y-131151966D01*
X166889000Y-131105612D01*
X166889000Y-130454388D01*
X166893565Y-130408034D01*
X166905296Y-130369363D01*
X166924348Y-130333721D01*
X166949983Y-130302483D01*
X166981221Y-130276848D01*
X167016863Y-130257796D01*
X167055534Y-130246065D01*
X167101888Y-130241500D01*
X168178112Y-130241500D01*
X168224466Y-130246065D01*
X168224466Y-130246065D01*
G37*
G36*
X159969466Y-130246065D02*
X160008137Y-130257796D01*
X160043779Y-130276848D01*
X160075017Y-130302483D01*
X160100652Y-130333721D01*
X160119704Y-130369363D01*
X160131435Y-130408034D01*
X160136000Y-130454388D01*
X160136000Y-131105612D01*
X160131435Y-131151966D01*
X160119704Y-131190637D01*
X160100652Y-131226279D01*
X160075017Y-131257517D01*
X160043779Y-131283152D01*
X160008137Y-131302204D01*
X159969466Y-131313935D01*
X159923112Y-131318500D01*
X158846888Y-131318500D01*
X158800534Y-131313935D01*
X158761863Y-131302204D01*
X158726221Y-131283152D01*
X158694983Y-131257517D01*
X158669348Y-131226279D01*
X158650296Y-131190637D01*
X158638565Y-131151966D01*
X158634000Y-131105612D01*
X158634000Y-130454388D01*
X158638565Y-130408034D01*
X158650296Y-130369363D01*
X158669348Y-130333721D01*
X158694983Y-130302483D01*
X158726221Y-130276848D01*
X158761863Y-130257796D01*
X158800534Y-130246065D01*
X158846888Y-130241500D01*
X159923112Y-130241500D01*
X159969466Y-130246065D01*
X159969466Y-130246065D01*
G37*
G36*
X162509466Y-130246065D02*
X162548137Y-130257796D01*
X162583779Y-130276848D01*
X162615017Y-130302483D01*
X162640652Y-130333721D01*
X162659704Y-130369363D01*
X162671435Y-130408034D01*
X162676000Y-130454388D01*
X162676000Y-131105612D01*
X162671435Y-131151966D01*
X162659704Y-131190637D01*
X162640652Y-131226279D01*
X162615017Y-131257517D01*
X162583779Y-131283152D01*
X162548137Y-131302204D01*
X162509466Y-131313935D01*
X162463112Y-131318500D01*
X161386888Y-131318500D01*
X161340534Y-131313935D01*
X161301863Y-131302204D01*
X161266221Y-131283152D01*
X161234983Y-131257517D01*
X161209348Y-131226279D01*
X161190296Y-131190637D01*
X161178565Y-131151966D01*
X161174000Y-131105612D01*
X161174000Y-130454388D01*
X161178565Y-130408034D01*
X161190296Y-130369363D01*
X161209348Y-130333721D01*
X161234983Y-130302483D01*
X161266221Y-130276848D01*
X161301863Y-130257796D01*
X161340534Y-130246065D01*
X161386888Y-130241500D01*
X162463112Y-130241500D01*
X162509466Y-130246065D01*
X162509466Y-130246065D01*
G37*
G36*
X155838113Y-129323611D02*
X155937264Y-129353688D01*
X156028644Y-129402531D01*
X156108738Y-129468262D01*
X156174469Y-129548356D01*
X156223312Y-129639735D01*
X156253389Y-129738886D01*
X156261000Y-129816161D01*
X156261000Y-130167838D01*
X156253389Y-130245113D01*
X156223312Y-130344264D01*
X156174469Y-130435644D01*
X156108738Y-130515738D01*
X156028644Y-130581469D01*
X155937265Y-130630312D01*
X155838114Y-130660389D01*
X155735000Y-130670545D01*
X155631887Y-130660389D01*
X155532736Y-130630312D01*
X155441357Y-130581469D01*
X155361263Y-130515738D01*
X155295532Y-130435644D01*
X155246689Y-130344265D01*
X155216611Y-130245114D01*
X155209000Y-130167839D01*
X155209000Y-129816162D01*
X155216611Y-129738887D01*
X155246688Y-129639736D01*
X155295531Y-129548356D01*
X155361262Y-129468262D01*
X155441356Y-129402531D01*
X155532735Y-129353688D01*
X155631886Y-129323611D01*
X155735000Y-129313455D01*
X155838113Y-129323611D01*
X155838113Y-129323611D01*
G37*
G36*
X191372443Y-128645519D02*
X191438627Y-128652037D01*
X191551853Y-128686384D01*
X191608467Y-128703557D01*
X191747087Y-128777652D01*
X191764991Y-128787222D01*
X191800729Y-128816552D01*
X191902186Y-128899814D01*
X191985448Y-129001271D01*
X192014778Y-129037009D01*
X192014779Y-129037011D01*
X192098443Y-129193533D01*
X192115616Y-129250147D01*
X192149963Y-129363373D01*
X192167359Y-129540000D01*
X192149963Y-129716627D01*
X192119770Y-129816161D01*
X192098443Y-129886467D01*
X192026132Y-130021750D01*
X192014778Y-130042991D01*
X191989101Y-130074278D01*
X191902186Y-130180186D01*
X191802500Y-130261995D01*
X191764991Y-130292778D01*
X191764989Y-130292779D01*
X191608467Y-130376443D01*
X191551853Y-130393616D01*
X191438627Y-130427963D01*
X191372443Y-130434481D01*
X191306260Y-130441000D01*
X191217740Y-130441000D01*
X191151557Y-130434481D01*
X191085373Y-130427963D01*
X190972147Y-130393616D01*
X190915533Y-130376443D01*
X190759011Y-130292779D01*
X190759009Y-130292778D01*
X190721500Y-130261995D01*
X190621814Y-130180186D01*
X190534899Y-130074278D01*
X190509222Y-130042991D01*
X190497868Y-130021750D01*
X190425557Y-129886467D01*
X190404230Y-129816161D01*
X190374037Y-129716627D01*
X190356641Y-129540000D01*
X190374037Y-129363373D01*
X190408384Y-129250147D01*
X190425557Y-129193533D01*
X190509221Y-129037011D01*
X190509222Y-129037009D01*
X190538552Y-129001271D01*
X190621814Y-128899814D01*
X190723271Y-128816552D01*
X190759009Y-128787222D01*
X190776913Y-128777652D01*
X190915533Y-128703557D01*
X190972147Y-128686384D01*
X191085373Y-128652037D01*
X191151557Y-128645519D01*
X191217740Y-128639000D01*
X191306260Y-128639000D01*
X191372443Y-128645519D01*
X191372443Y-128645519D01*
G37*
G36*
X185791966Y-128793565D02*
X185830637Y-128805296D01*
X185866279Y-128824348D01*
X185897517Y-128849983D01*
X185923152Y-128881221D01*
X185942204Y-128916863D01*
X185953935Y-128955534D01*
X185958500Y-129001888D01*
X185958500Y-130078112D01*
X185953935Y-130124466D01*
X185942204Y-130163137D01*
X185923152Y-130198779D01*
X185897517Y-130230017D01*
X185866279Y-130255652D01*
X185830637Y-130274704D01*
X185791966Y-130286435D01*
X185745612Y-130291000D01*
X185094388Y-130291000D01*
X185048034Y-130286435D01*
X185009363Y-130274704D01*
X184973721Y-130255652D01*
X184942483Y-130230017D01*
X184916848Y-130198779D01*
X184897796Y-130163137D01*
X184886065Y-130124466D01*
X184881500Y-130078112D01*
X184881500Y-129001888D01*
X184886065Y-128955534D01*
X184897796Y-128916863D01*
X184916848Y-128881221D01*
X184942483Y-128849983D01*
X184973721Y-128824348D01*
X185009363Y-128805296D01*
X185048034Y-128793565D01*
X185094388Y-128789000D01*
X185745612Y-128789000D01*
X185791966Y-128793565D01*
X185791966Y-128793565D01*
G37*
G36*
X183916966Y-128793565D02*
X183955637Y-128805296D01*
X183991279Y-128824348D01*
X184022517Y-128849983D01*
X184048152Y-128881221D01*
X184067204Y-128916863D01*
X184078935Y-128955534D01*
X184083500Y-129001888D01*
X184083500Y-130078112D01*
X184078935Y-130124466D01*
X184067204Y-130163137D01*
X184048152Y-130198779D01*
X184022517Y-130230017D01*
X183991279Y-130255652D01*
X183955637Y-130274704D01*
X183916966Y-130286435D01*
X183870612Y-130291000D01*
X183219388Y-130291000D01*
X183173034Y-130286435D01*
X183134363Y-130274704D01*
X183098721Y-130255652D01*
X183067483Y-130230017D01*
X183041848Y-130198779D01*
X183022796Y-130163137D01*
X183011065Y-130124466D01*
X183006500Y-130078112D01*
X183006500Y-129001888D01*
X183011065Y-128955534D01*
X183022796Y-128916863D01*
X183041848Y-128881221D01*
X183067483Y-128849983D01*
X183098721Y-128824348D01*
X183134363Y-128805296D01*
X183173034Y-128793565D01*
X183219388Y-128789000D01*
X183870612Y-128789000D01*
X183916966Y-128793565D01*
X183916966Y-128793565D01*
G37*
G36*
X166319466Y-128371065D02*
X166358137Y-128382796D01*
X166393779Y-128401848D01*
X166425017Y-128427483D01*
X166450652Y-128458721D01*
X166469704Y-128494363D01*
X166481435Y-128533034D01*
X166486000Y-128579388D01*
X166486000Y-129230612D01*
X166481435Y-129276966D01*
X166469704Y-129315637D01*
X166450652Y-129351279D01*
X166425017Y-129382517D01*
X166393779Y-129408152D01*
X166358137Y-129427204D01*
X166319466Y-129438935D01*
X166273112Y-129443500D01*
X165196888Y-129443500D01*
X165150534Y-129438935D01*
X165111863Y-129427204D01*
X165076221Y-129408152D01*
X165044983Y-129382517D01*
X165019348Y-129351279D01*
X165000296Y-129315637D01*
X164988565Y-129276966D01*
X164984000Y-129230612D01*
X164984000Y-128579388D01*
X164988565Y-128533034D01*
X165000296Y-128494363D01*
X165019348Y-128458721D01*
X165044983Y-128427483D01*
X165076221Y-128401848D01*
X165111863Y-128382796D01*
X165150534Y-128371065D01*
X165196888Y-128366500D01*
X166273112Y-128366500D01*
X166319466Y-128371065D01*
X166319466Y-128371065D01*
G37*
G36*
X168224466Y-128371065D02*
X168263137Y-128382796D01*
X168298779Y-128401848D01*
X168330017Y-128427483D01*
X168355652Y-128458721D01*
X168374704Y-128494363D01*
X168386435Y-128533034D01*
X168391000Y-128579388D01*
X168391000Y-129230612D01*
X168386435Y-129276966D01*
X168374704Y-129315637D01*
X168355652Y-129351279D01*
X168330017Y-129382517D01*
X168298779Y-129408152D01*
X168263137Y-129427204D01*
X168224466Y-129438935D01*
X168178112Y-129443500D01*
X167101888Y-129443500D01*
X167055534Y-129438935D01*
X167016863Y-129427204D01*
X166981221Y-129408152D01*
X166949983Y-129382517D01*
X166924348Y-129351279D01*
X166905296Y-129315637D01*
X166893565Y-129276966D01*
X166889000Y-129230612D01*
X166889000Y-128579388D01*
X166893565Y-128533034D01*
X166905296Y-128494363D01*
X166924348Y-128458721D01*
X166949983Y-128427483D01*
X166981221Y-128401848D01*
X167016863Y-128382796D01*
X167055534Y-128371065D01*
X167101888Y-128366500D01*
X168178112Y-128366500D01*
X168224466Y-128371065D01*
X168224466Y-128371065D01*
G37*
G36*
X164414466Y-128371065D02*
X164453137Y-128382796D01*
X164488779Y-128401848D01*
X164520017Y-128427483D01*
X164545652Y-128458721D01*
X164564704Y-128494363D01*
X164576435Y-128533034D01*
X164581000Y-128579388D01*
X164581000Y-129230612D01*
X164576435Y-129276966D01*
X164564704Y-129315637D01*
X164545652Y-129351279D01*
X164520017Y-129382517D01*
X164488779Y-129408152D01*
X164453137Y-129427204D01*
X164414466Y-129438935D01*
X164368112Y-129443500D01*
X163291888Y-129443500D01*
X163245534Y-129438935D01*
X163206863Y-129427204D01*
X163171221Y-129408152D01*
X163139983Y-129382517D01*
X163114348Y-129351279D01*
X163095296Y-129315637D01*
X163083565Y-129276966D01*
X163079000Y-129230612D01*
X163079000Y-128579388D01*
X163083565Y-128533034D01*
X163095296Y-128494363D01*
X163114348Y-128458721D01*
X163139983Y-128427483D01*
X163171221Y-128401848D01*
X163206863Y-128382796D01*
X163245534Y-128371065D01*
X163291888Y-128366500D01*
X164368112Y-128366500D01*
X164414466Y-128371065D01*
X164414466Y-128371065D01*
G37*
G36*
X162509466Y-128371065D02*
X162548137Y-128382796D01*
X162583779Y-128401848D01*
X162615017Y-128427483D01*
X162640652Y-128458721D01*
X162659704Y-128494363D01*
X162671435Y-128533034D01*
X162676000Y-128579388D01*
X162676000Y-129230612D01*
X162671435Y-129276966D01*
X162659704Y-129315637D01*
X162640652Y-129351279D01*
X162615017Y-129382517D01*
X162583779Y-129408152D01*
X162548137Y-129427204D01*
X162509466Y-129438935D01*
X162463112Y-129443500D01*
X161386888Y-129443500D01*
X161340534Y-129438935D01*
X161301863Y-129427204D01*
X161266221Y-129408152D01*
X161234983Y-129382517D01*
X161209348Y-129351279D01*
X161190296Y-129315637D01*
X161178565Y-129276966D01*
X161174000Y-129230612D01*
X161174000Y-128579388D01*
X161178565Y-128533034D01*
X161190296Y-128494363D01*
X161209348Y-128458721D01*
X161234983Y-128427483D01*
X161266221Y-128401848D01*
X161301863Y-128382796D01*
X161340534Y-128371065D01*
X161386888Y-128366500D01*
X162463112Y-128366500D01*
X162509466Y-128371065D01*
X162509466Y-128371065D01*
G37*
G36*
X159969466Y-128371065D02*
X160008137Y-128382796D01*
X160043779Y-128401848D01*
X160075017Y-128427483D01*
X160100652Y-128458721D01*
X160119704Y-128494363D01*
X160131435Y-128533034D01*
X160136000Y-128579388D01*
X160136000Y-129230612D01*
X160131435Y-129276966D01*
X160119704Y-129315637D01*
X160100652Y-129351279D01*
X160075017Y-129382517D01*
X160043779Y-129408152D01*
X160008137Y-129427204D01*
X159969466Y-129438935D01*
X159923112Y-129443500D01*
X158846888Y-129443500D01*
X158800534Y-129438935D01*
X158761863Y-129427204D01*
X158726221Y-129408152D01*
X158694983Y-129382517D01*
X158669348Y-129351279D01*
X158650296Y-129315637D01*
X158638565Y-129276966D01*
X158634000Y-129230612D01*
X158634000Y-128579388D01*
X158638565Y-128533034D01*
X158650296Y-128494363D01*
X158669348Y-128458721D01*
X158694983Y-128427483D01*
X158726221Y-128401848D01*
X158761863Y-128382796D01*
X158800534Y-128371065D01*
X158846888Y-128366500D01*
X159923112Y-128366500D01*
X159969466Y-128371065D01*
X159969466Y-128371065D01*
G37*
G36*
X153861000Y-129293000D02*
X152209000Y-129293000D01*
X152209000Y-127691000D01*
X153861000Y-127691000D01*
X153861000Y-129293000D01*
X153861000Y-129293000D01*
G37*
G36*
X156411000Y-129043000D02*
X154959000Y-129043000D01*
X154959000Y-125941000D01*
X156411000Y-125941000D01*
X156411000Y-129043000D01*
X156411000Y-129043000D01*
G37*
G36*
X191372443Y-126105519D02*
X191438627Y-126112037D01*
X191551508Y-126146279D01*
X191608467Y-126163557D01*
X191718186Y-126222204D01*
X191764991Y-126247222D01*
X191800729Y-126276552D01*
X191902186Y-126359814D01*
X191970454Y-126443000D01*
X192014778Y-126497009D01*
X192014779Y-126497011D01*
X192098443Y-126653533D01*
X192098443Y-126653534D01*
X192149963Y-126823373D01*
X192167359Y-127000000D01*
X192149963Y-127176627D01*
X192115616Y-127289853D01*
X192098443Y-127346467D01*
X192026132Y-127481750D01*
X192014778Y-127502991D01*
X191989101Y-127534278D01*
X191902186Y-127640186D01*
X191810229Y-127715652D01*
X191764991Y-127752778D01*
X191764989Y-127752779D01*
X191608467Y-127836443D01*
X191551853Y-127853616D01*
X191438627Y-127887963D01*
X191372442Y-127894482D01*
X191306260Y-127901000D01*
X191217740Y-127901000D01*
X191151558Y-127894482D01*
X191085373Y-127887963D01*
X190972147Y-127853616D01*
X190915533Y-127836443D01*
X190759011Y-127752779D01*
X190759009Y-127752778D01*
X190713771Y-127715652D01*
X190621814Y-127640186D01*
X190534899Y-127534278D01*
X190509222Y-127502991D01*
X190497868Y-127481750D01*
X190425557Y-127346467D01*
X190408384Y-127289853D01*
X190374037Y-127176627D01*
X190356641Y-127000000D01*
X190374037Y-126823373D01*
X190425557Y-126653534D01*
X190425557Y-126653533D01*
X190509221Y-126497011D01*
X190509222Y-126497009D01*
X190553546Y-126443000D01*
X190621814Y-126359814D01*
X190723271Y-126276552D01*
X190759009Y-126247222D01*
X190805814Y-126222204D01*
X190915533Y-126163557D01*
X190972492Y-126146279D01*
X191085373Y-126112037D01*
X191151557Y-126105519D01*
X191217740Y-126099000D01*
X191306260Y-126099000D01*
X191372443Y-126105519D01*
X191372443Y-126105519D01*
G37*
G36*
X183916966Y-126253565D02*
X183955637Y-126265296D01*
X183991279Y-126284348D01*
X184022517Y-126309983D01*
X184048152Y-126341221D01*
X184067204Y-126376863D01*
X184078935Y-126415534D01*
X184083500Y-126461888D01*
X184083500Y-127538112D01*
X184078935Y-127584466D01*
X184067204Y-127623137D01*
X184048152Y-127658779D01*
X184022517Y-127690017D01*
X183991279Y-127715652D01*
X183955637Y-127734704D01*
X183916966Y-127746435D01*
X183870612Y-127751000D01*
X183219388Y-127751000D01*
X183173034Y-127746435D01*
X183134363Y-127734704D01*
X183098721Y-127715652D01*
X183067483Y-127690017D01*
X183041848Y-127658779D01*
X183022796Y-127623137D01*
X183011065Y-127584466D01*
X183006500Y-127538112D01*
X183006500Y-126461888D01*
X183011065Y-126415534D01*
X183022796Y-126376863D01*
X183041848Y-126341221D01*
X183067483Y-126309983D01*
X183098721Y-126284348D01*
X183134363Y-126265296D01*
X183173034Y-126253565D01*
X183219388Y-126249000D01*
X183870612Y-126249000D01*
X183916966Y-126253565D01*
X183916966Y-126253565D01*
G37*
G36*
X185791966Y-126253565D02*
X185830637Y-126265296D01*
X185866279Y-126284348D01*
X185897517Y-126309983D01*
X185923152Y-126341221D01*
X185942204Y-126376863D01*
X185953935Y-126415534D01*
X185958500Y-126461888D01*
X185958500Y-127538112D01*
X185953935Y-127584466D01*
X185942204Y-127623137D01*
X185923152Y-127658779D01*
X185897517Y-127690017D01*
X185866279Y-127715652D01*
X185830637Y-127734704D01*
X185791966Y-127746435D01*
X185745612Y-127751000D01*
X185094388Y-127751000D01*
X185048034Y-127746435D01*
X185009363Y-127734704D01*
X184973721Y-127715652D01*
X184942483Y-127690017D01*
X184916848Y-127658779D01*
X184897796Y-127623137D01*
X184886065Y-127584466D01*
X184881500Y-127538112D01*
X184881500Y-126461888D01*
X184886065Y-126415534D01*
X184897796Y-126376863D01*
X184916848Y-126341221D01*
X184942483Y-126309983D01*
X184973721Y-126284348D01*
X185009363Y-126265296D01*
X185048034Y-126253565D01*
X185094388Y-126249000D01*
X185745612Y-126249000D01*
X185791966Y-126253565D01*
X185791966Y-126253565D01*
G37*
G36*
X153861000Y-127293000D02*
X152209000Y-127293000D01*
X152209000Y-125691000D01*
X153861000Y-125691000D01*
X153861000Y-127293000D01*
X153861000Y-127293000D01*
G37*
G36*
X162509466Y-125196065D02*
X162548137Y-125207796D01*
X162583779Y-125226848D01*
X162615017Y-125252483D01*
X162640652Y-125283721D01*
X162659704Y-125319363D01*
X162671435Y-125358034D01*
X162676000Y-125404388D01*
X162676000Y-126055612D01*
X162671435Y-126101966D01*
X162659704Y-126140637D01*
X162640652Y-126176279D01*
X162615017Y-126207517D01*
X162583779Y-126233152D01*
X162548137Y-126252204D01*
X162509466Y-126263935D01*
X162463112Y-126268500D01*
X161386888Y-126268500D01*
X161340534Y-126263935D01*
X161301863Y-126252204D01*
X161266221Y-126233152D01*
X161234983Y-126207517D01*
X161209348Y-126176279D01*
X161190296Y-126140637D01*
X161178565Y-126101966D01*
X161174000Y-126055612D01*
X161174000Y-125404388D01*
X161178565Y-125358034D01*
X161190296Y-125319363D01*
X161209348Y-125283721D01*
X161234983Y-125252483D01*
X161266221Y-125226848D01*
X161301863Y-125207796D01*
X161340534Y-125196065D01*
X161386888Y-125191500D01*
X162463112Y-125191500D01*
X162509466Y-125196065D01*
X162509466Y-125196065D01*
G37*
G36*
X166319466Y-125196065D02*
X166358137Y-125207796D01*
X166393779Y-125226848D01*
X166425017Y-125252483D01*
X166450652Y-125283721D01*
X166469704Y-125319363D01*
X166481435Y-125358034D01*
X166486000Y-125404388D01*
X166486000Y-126055612D01*
X166481435Y-126101966D01*
X166469704Y-126140637D01*
X166450652Y-126176279D01*
X166425017Y-126207517D01*
X166393779Y-126233152D01*
X166358137Y-126252204D01*
X166319466Y-126263935D01*
X166273112Y-126268500D01*
X165196888Y-126268500D01*
X165150534Y-126263935D01*
X165111863Y-126252204D01*
X165076221Y-126233152D01*
X165044983Y-126207517D01*
X165019348Y-126176279D01*
X165000296Y-126140637D01*
X164988565Y-126101966D01*
X164984000Y-126055612D01*
X164984000Y-125404388D01*
X164988565Y-125358034D01*
X165000296Y-125319363D01*
X165019348Y-125283721D01*
X165044983Y-125252483D01*
X165076221Y-125226848D01*
X165111863Y-125207796D01*
X165150534Y-125196065D01*
X165196888Y-125191500D01*
X166273112Y-125191500D01*
X166319466Y-125196065D01*
X166319466Y-125196065D01*
G37*
G36*
X164414466Y-125196065D02*
X164453137Y-125207796D01*
X164488779Y-125226848D01*
X164520017Y-125252483D01*
X164545652Y-125283721D01*
X164564704Y-125319363D01*
X164576435Y-125358034D01*
X164581000Y-125404388D01*
X164581000Y-126055612D01*
X164576435Y-126101966D01*
X164564704Y-126140637D01*
X164545652Y-126176279D01*
X164520017Y-126207517D01*
X164488779Y-126233152D01*
X164453137Y-126252204D01*
X164414466Y-126263935D01*
X164368112Y-126268500D01*
X163291888Y-126268500D01*
X163245534Y-126263935D01*
X163206863Y-126252204D01*
X163171221Y-126233152D01*
X163139983Y-126207517D01*
X163114348Y-126176279D01*
X163095296Y-126140637D01*
X163083565Y-126101966D01*
X163079000Y-126055612D01*
X163079000Y-125404388D01*
X163083565Y-125358034D01*
X163095296Y-125319363D01*
X163114348Y-125283721D01*
X163139983Y-125252483D01*
X163171221Y-125226848D01*
X163206863Y-125207796D01*
X163245534Y-125196065D01*
X163291888Y-125191500D01*
X164368112Y-125191500D01*
X164414466Y-125196065D01*
X164414466Y-125196065D01*
G37*
G36*
X159969466Y-125166065D02*
X160008137Y-125177796D01*
X160043779Y-125196848D01*
X160075017Y-125222483D01*
X160100652Y-125253721D01*
X160119704Y-125289363D01*
X160131435Y-125328034D01*
X160136000Y-125374388D01*
X160136000Y-126025612D01*
X160131435Y-126071966D01*
X160119704Y-126110637D01*
X160100652Y-126146279D01*
X160075017Y-126177517D01*
X160043779Y-126203152D01*
X160008137Y-126222204D01*
X159969466Y-126233935D01*
X159923112Y-126238500D01*
X158846888Y-126238500D01*
X158800534Y-126233935D01*
X158761863Y-126222204D01*
X158726221Y-126203152D01*
X158694983Y-126177517D01*
X158669348Y-126146279D01*
X158650296Y-126110637D01*
X158638565Y-126071966D01*
X158634000Y-126025612D01*
X158634000Y-125374388D01*
X158638565Y-125328034D01*
X158650296Y-125289363D01*
X158669348Y-125253721D01*
X158694983Y-125222483D01*
X158726221Y-125196848D01*
X158761863Y-125177796D01*
X158800534Y-125166065D01*
X158846888Y-125161500D01*
X159923112Y-125161500D01*
X159969466Y-125166065D01*
X159969466Y-125166065D01*
G37*
G36*
X155838114Y-124323611D02*
X155937265Y-124353688D01*
X156028644Y-124402531D01*
X156108738Y-124468262D01*
X156174469Y-124548356D01*
X156223312Y-124639736D01*
X156253389Y-124738887D01*
X156261000Y-124816162D01*
X156261000Y-125167839D01*
X156253389Y-125245114D01*
X156223312Y-125344265D01*
X156174469Y-125435644D01*
X156108738Y-125515738D01*
X156028644Y-125581469D01*
X155937264Y-125630312D01*
X155838113Y-125660389D01*
X155735000Y-125670545D01*
X155631886Y-125660389D01*
X155532735Y-125630312D01*
X155441356Y-125581469D01*
X155361262Y-125515738D01*
X155295531Y-125435644D01*
X155246688Y-125344264D01*
X155216611Y-125245113D01*
X155209000Y-125167838D01*
X155209000Y-124816161D01*
X155216611Y-124738886D01*
X155246689Y-124639735D01*
X155295532Y-124548356D01*
X155361263Y-124468262D01*
X155441357Y-124402531D01*
X155532736Y-124353688D01*
X155631887Y-124323611D01*
X155735000Y-124313455D01*
X155838114Y-124323611D01*
X155838114Y-124323611D01*
G37*
G36*
X191372442Y-123565518D02*
X191438627Y-123572037D01*
X191551853Y-123606384D01*
X191608467Y-123623557D01*
X191747087Y-123697652D01*
X191764991Y-123707222D01*
X191771194Y-123712313D01*
X191902186Y-123819814D01*
X191962893Y-123893787D01*
X192014778Y-123957009D01*
X192024348Y-123974913D01*
X192098443Y-124113533D01*
X192115616Y-124170147D01*
X192149963Y-124283373D01*
X192167359Y-124460000D01*
X192149963Y-124636627D01*
X192138019Y-124676000D01*
X192098443Y-124806467D01*
X192089071Y-124824000D01*
X192014778Y-124962991D01*
X191985448Y-124998729D01*
X191902186Y-125100186D01*
X191802500Y-125181995D01*
X191764991Y-125212778D01*
X191764989Y-125212779D01*
X191608467Y-125296443D01*
X191559941Y-125311163D01*
X191438627Y-125347963D01*
X191372442Y-125354482D01*
X191306260Y-125361000D01*
X191217740Y-125361000D01*
X191151558Y-125354482D01*
X191085373Y-125347963D01*
X190964059Y-125311163D01*
X190915533Y-125296443D01*
X190759011Y-125212779D01*
X190759009Y-125212778D01*
X190721500Y-125181995D01*
X190621814Y-125100186D01*
X190538552Y-124998729D01*
X190509222Y-124962991D01*
X190434929Y-124824000D01*
X190425557Y-124806467D01*
X190385981Y-124676000D01*
X190374037Y-124636627D01*
X190356641Y-124460000D01*
X190374037Y-124283373D01*
X190408384Y-124170147D01*
X190425557Y-124113533D01*
X190499652Y-123974913D01*
X190509222Y-123957009D01*
X190561107Y-123893787D01*
X190621814Y-123819814D01*
X190752806Y-123712313D01*
X190759009Y-123707222D01*
X190776913Y-123697652D01*
X190915533Y-123623557D01*
X190972147Y-123606384D01*
X191085373Y-123572037D01*
X191151558Y-123565518D01*
X191217740Y-123559000D01*
X191306260Y-123559000D01*
X191372442Y-123565518D01*
X191372442Y-123565518D01*
G37*
G36*
X153458213Y-123498249D02*
X153552652Y-123526897D01*
X153639687Y-123573418D01*
X153715975Y-123636025D01*
X153778582Y-123712313D01*
X153825103Y-123799348D01*
X153841165Y-123852298D01*
X153850538Y-123874924D01*
X153861000Y-123890583D01*
X153861000Y-123961257D01*
X153861601Y-123973492D01*
X153863424Y-123992000D01*
X153861601Y-124010508D01*
X153861000Y-124022743D01*
X153861000Y-125243000D01*
X152209000Y-125243000D01*
X152209000Y-124022743D01*
X152208399Y-124010508D01*
X152206576Y-123992000D01*
X152208399Y-123973492D01*
X152209000Y-123961257D01*
X152209000Y-123890510D01*
X152213156Y-123885446D01*
X152224707Y-123863835D01*
X152228831Y-123852311D01*
X152244897Y-123799348D01*
X152291418Y-123712313D01*
X152354025Y-123636025D01*
X152430313Y-123573418D01*
X152517348Y-123526897D01*
X152611787Y-123498249D01*
X152685388Y-123491000D01*
X153384612Y-123491000D01*
X153458213Y-123498249D01*
X153458213Y-123498249D01*
G37*
G36*
X162509466Y-123321065D02*
X162548137Y-123332796D01*
X162583779Y-123351848D01*
X162615017Y-123377483D01*
X162640652Y-123408721D01*
X162659704Y-123444363D01*
X162671435Y-123483034D01*
X162676000Y-123529388D01*
X162676000Y-124180612D01*
X162671435Y-124226966D01*
X162659704Y-124265637D01*
X162640652Y-124301279D01*
X162615017Y-124332517D01*
X162583779Y-124358152D01*
X162548137Y-124377204D01*
X162509466Y-124388935D01*
X162463112Y-124393500D01*
X161386888Y-124393500D01*
X161340534Y-124388935D01*
X161301863Y-124377204D01*
X161266221Y-124358152D01*
X161234983Y-124332517D01*
X161209348Y-124301279D01*
X161190296Y-124265637D01*
X161178565Y-124226966D01*
X161174000Y-124180612D01*
X161174000Y-123529388D01*
X161178565Y-123483034D01*
X161190296Y-123444363D01*
X161209348Y-123408721D01*
X161234983Y-123377483D01*
X161266221Y-123351848D01*
X161301863Y-123332796D01*
X161340534Y-123321065D01*
X161386888Y-123316500D01*
X162463112Y-123316500D01*
X162509466Y-123321065D01*
X162509466Y-123321065D01*
G37*
G36*
X164414466Y-123321065D02*
X164453137Y-123332796D01*
X164488779Y-123351848D01*
X164520017Y-123377483D01*
X164545652Y-123408721D01*
X164564704Y-123444363D01*
X164576435Y-123483034D01*
X164581000Y-123529388D01*
X164581000Y-124180612D01*
X164576435Y-124226966D01*
X164564704Y-124265637D01*
X164545652Y-124301279D01*
X164520017Y-124332517D01*
X164488779Y-124358152D01*
X164453137Y-124377204D01*
X164414466Y-124388935D01*
X164368112Y-124393500D01*
X163291888Y-124393500D01*
X163245534Y-124388935D01*
X163206863Y-124377204D01*
X163171221Y-124358152D01*
X163139983Y-124332517D01*
X163114348Y-124301279D01*
X163095296Y-124265637D01*
X163083565Y-124226966D01*
X163079000Y-124180612D01*
X163079000Y-123529388D01*
X163083565Y-123483034D01*
X163095296Y-123444363D01*
X163114348Y-123408721D01*
X163139983Y-123377483D01*
X163171221Y-123351848D01*
X163206863Y-123332796D01*
X163245534Y-123321065D01*
X163291888Y-123316500D01*
X164368112Y-123316500D01*
X164414466Y-123321065D01*
X164414466Y-123321065D01*
G37*
G36*
X166319466Y-123321065D02*
X166358137Y-123332796D01*
X166393779Y-123351848D01*
X166425017Y-123377483D01*
X166450652Y-123408721D01*
X166469704Y-123444363D01*
X166481435Y-123483034D01*
X166486000Y-123529388D01*
X166486000Y-124180612D01*
X166481435Y-124226966D01*
X166469704Y-124265637D01*
X166450652Y-124301279D01*
X166425017Y-124332517D01*
X166393779Y-124358152D01*
X166358137Y-124377204D01*
X166319466Y-124388935D01*
X166273112Y-124393500D01*
X165196888Y-124393500D01*
X165150534Y-124388935D01*
X165111863Y-124377204D01*
X165076221Y-124358152D01*
X165044983Y-124332517D01*
X165019348Y-124301279D01*
X165000296Y-124265637D01*
X164988565Y-124226966D01*
X164984000Y-124180612D01*
X164984000Y-123529388D01*
X164988565Y-123483034D01*
X165000296Y-123444363D01*
X165019348Y-123408721D01*
X165044983Y-123377483D01*
X165076221Y-123351848D01*
X165111863Y-123332796D01*
X165150534Y-123321065D01*
X165196888Y-123316500D01*
X166273112Y-123316500D01*
X166319466Y-123321065D01*
X166319466Y-123321065D01*
G37*
G36*
X159969466Y-123291065D02*
X160008137Y-123302796D01*
X160043779Y-123321848D01*
X160075017Y-123347483D01*
X160100652Y-123378721D01*
X160119704Y-123414363D01*
X160131435Y-123453034D01*
X160136000Y-123499388D01*
X160136000Y-124150612D01*
X160131435Y-124196966D01*
X160119704Y-124235637D01*
X160100652Y-124271279D01*
X160075017Y-124302517D01*
X160043779Y-124328152D01*
X160008137Y-124347204D01*
X159969466Y-124358935D01*
X159923112Y-124363500D01*
X158846888Y-124363500D01*
X158800534Y-124358935D01*
X158761863Y-124347204D01*
X158726221Y-124328152D01*
X158694983Y-124302517D01*
X158669348Y-124271279D01*
X158650296Y-124235637D01*
X158638565Y-124196966D01*
X158634000Y-124150612D01*
X158634000Y-123499388D01*
X158638565Y-123453034D01*
X158650296Y-123414363D01*
X158669348Y-123378721D01*
X158694983Y-123347483D01*
X158726221Y-123321848D01*
X158761863Y-123302796D01*
X158800534Y-123291065D01*
X158846888Y-123286500D01*
X159923112Y-123286500D01*
X159969466Y-123291065D01*
X159969466Y-123291065D01*
G37*
G36*
X191372443Y-121025519D02*
X191438627Y-121032037D01*
X191551853Y-121066384D01*
X191608467Y-121083557D01*
X191729020Y-121147995D01*
X191764991Y-121167222D01*
X191790445Y-121188112D01*
X191902186Y-121279814D01*
X191972630Y-121365652D01*
X192014778Y-121417009D01*
X192014779Y-121417011D01*
X192098443Y-121573533D01*
X192098443Y-121573534D01*
X192149963Y-121743373D01*
X192167359Y-121920000D01*
X192149963Y-122096627D01*
X192145215Y-122112279D01*
X192098443Y-122266467D01*
X192024348Y-122405087D01*
X192014778Y-122422991D01*
X191985448Y-122458729D01*
X191902186Y-122560186D01*
X191800729Y-122643448D01*
X191764991Y-122672778D01*
X191764989Y-122672779D01*
X191608467Y-122756443D01*
X191551853Y-122773616D01*
X191438627Y-122807963D01*
X191372443Y-122814481D01*
X191306260Y-122821000D01*
X191217740Y-122821000D01*
X191151558Y-122814482D01*
X191085373Y-122807963D01*
X190972147Y-122773616D01*
X190915533Y-122756443D01*
X190759011Y-122672779D01*
X190759009Y-122672778D01*
X190723271Y-122643448D01*
X190621814Y-122560186D01*
X190538552Y-122458729D01*
X190509222Y-122422991D01*
X190499652Y-122405087D01*
X190425557Y-122266467D01*
X190378785Y-122112279D01*
X190374037Y-122096627D01*
X190356641Y-121920000D01*
X190374037Y-121743373D01*
X190425557Y-121573534D01*
X190425557Y-121573533D01*
X190509221Y-121417011D01*
X190509222Y-121417009D01*
X190551370Y-121365652D01*
X190621814Y-121279814D01*
X190733555Y-121188112D01*
X190759009Y-121167222D01*
X190794980Y-121147995D01*
X190915533Y-121083557D01*
X190972147Y-121066384D01*
X191085373Y-121032037D01*
X191151558Y-121025518D01*
X191217740Y-121019000D01*
X191306260Y-121019000D01*
X191372443Y-121025519D01*
X191372443Y-121025519D01*
G37*
G36*
X179806000Y-122601000D02*
X171954000Y-122601000D01*
X171954000Y-121499000D01*
X179806000Y-121499000D01*
X179806000Y-122601000D01*
X179806000Y-122601000D01*
G37*
G36*
X159634000Y-122243000D02*
X156982000Y-122243000D01*
X156982000Y-120581000D01*
X159634000Y-120581000D01*
X159634000Y-122243000D01*
X159634000Y-122243000D01*
G37*
G36*
X155778466Y-121132065D02*
X155817137Y-121143796D01*
X155852779Y-121162848D01*
X155884017Y-121188483D01*
X155909652Y-121219721D01*
X155928704Y-121255363D01*
X155940435Y-121294034D01*
X155945000Y-121340388D01*
X155945000Y-121991612D01*
X155940435Y-122037966D01*
X155928704Y-122076637D01*
X155909652Y-122112279D01*
X155884017Y-122143517D01*
X155852779Y-122169152D01*
X155817137Y-122188204D01*
X155778466Y-122199935D01*
X155732112Y-122204500D01*
X154655888Y-122204500D01*
X154609534Y-122199935D01*
X154570863Y-122188204D01*
X154535221Y-122169152D01*
X154503983Y-122143517D01*
X154478348Y-122112279D01*
X154459296Y-122076637D01*
X154447565Y-122037966D01*
X154443000Y-121991612D01*
X154443000Y-121340388D01*
X154447565Y-121294034D01*
X154459296Y-121255363D01*
X154478348Y-121219721D01*
X154503983Y-121188483D01*
X154535221Y-121162848D01*
X154570863Y-121143796D01*
X154609534Y-121132065D01*
X154655888Y-121127500D01*
X155732112Y-121127500D01*
X155778466Y-121132065D01*
X155778466Y-121132065D01*
G37*
G36*
X166771966Y-119903565D02*
X166810637Y-119915296D01*
X166846279Y-119934348D01*
X166877517Y-119959983D01*
X166903152Y-119991221D01*
X166922204Y-120026863D01*
X166933935Y-120065534D01*
X166938500Y-120111888D01*
X166938500Y-121188112D01*
X166933935Y-121234466D01*
X166922204Y-121273137D01*
X166903152Y-121308779D01*
X166877517Y-121340017D01*
X166846279Y-121365652D01*
X166810637Y-121384704D01*
X166771966Y-121396435D01*
X166725612Y-121401000D01*
X166074388Y-121401000D01*
X166028034Y-121396435D01*
X165989363Y-121384704D01*
X165953721Y-121365652D01*
X165922483Y-121340017D01*
X165896848Y-121308779D01*
X165877796Y-121273137D01*
X165866065Y-121234466D01*
X165861500Y-121188112D01*
X165861500Y-120111888D01*
X165866065Y-120065534D01*
X165877796Y-120026863D01*
X165896848Y-119991221D01*
X165922483Y-119959983D01*
X165953721Y-119934348D01*
X165989363Y-119915296D01*
X166028034Y-119903565D01*
X166074388Y-119899000D01*
X166725612Y-119899000D01*
X166771966Y-119903565D01*
X166771966Y-119903565D01*
G37*
G36*
X168646966Y-119903565D02*
X168685637Y-119915296D01*
X168721279Y-119934348D01*
X168752517Y-119959983D01*
X168778152Y-119991221D01*
X168797204Y-120026863D01*
X168808935Y-120065534D01*
X168813500Y-120111888D01*
X168813500Y-121188112D01*
X168808935Y-121234466D01*
X168797204Y-121273137D01*
X168778152Y-121308779D01*
X168752517Y-121340017D01*
X168721279Y-121365652D01*
X168685637Y-121384704D01*
X168646966Y-121396435D01*
X168600612Y-121401000D01*
X167949388Y-121401000D01*
X167903034Y-121396435D01*
X167864363Y-121384704D01*
X167828721Y-121365652D01*
X167797483Y-121340017D01*
X167771848Y-121308779D01*
X167752796Y-121273137D01*
X167741065Y-121234466D01*
X167736500Y-121188112D01*
X167736500Y-120111888D01*
X167741065Y-120065534D01*
X167752796Y-120026863D01*
X167771848Y-119991221D01*
X167797483Y-119959983D01*
X167828721Y-119934348D01*
X167864363Y-119915296D01*
X167903034Y-119903565D01*
X167949388Y-119899000D01*
X168600612Y-119899000D01*
X168646966Y-119903565D01*
X168646966Y-119903565D01*
G37*
G36*
X179654466Y-119481065D02*
X179693137Y-119492796D01*
X179728779Y-119511848D01*
X179760017Y-119537483D01*
X179785652Y-119568721D01*
X179804704Y-119604363D01*
X179816435Y-119643034D01*
X179821000Y-119689388D01*
X179821000Y-120340612D01*
X179816435Y-120386966D01*
X179804704Y-120425637D01*
X179785652Y-120461279D01*
X179760017Y-120492517D01*
X179728779Y-120518152D01*
X179693137Y-120537204D01*
X179654466Y-120548935D01*
X179608112Y-120553500D01*
X178531888Y-120553500D01*
X178485534Y-120548935D01*
X178446863Y-120537204D01*
X178411221Y-120518152D01*
X178379983Y-120492517D01*
X178354348Y-120461279D01*
X178335296Y-120425637D01*
X178323565Y-120386966D01*
X178319000Y-120340612D01*
X178319000Y-119689388D01*
X178323565Y-119643034D01*
X178335296Y-119604363D01*
X178354348Y-119568721D01*
X178379983Y-119537483D01*
X178411221Y-119511848D01*
X178446863Y-119492796D01*
X178485534Y-119481065D01*
X178531888Y-119476500D01*
X179608112Y-119476500D01*
X179654466Y-119481065D01*
X179654466Y-119481065D01*
G37*
G36*
X173939466Y-119481065D02*
X173978137Y-119492796D01*
X174013779Y-119511848D01*
X174045017Y-119537483D01*
X174070652Y-119568721D01*
X174089704Y-119604363D01*
X174101435Y-119643034D01*
X174106000Y-119689388D01*
X174106000Y-120340612D01*
X174101435Y-120386966D01*
X174089704Y-120425637D01*
X174070652Y-120461279D01*
X174045017Y-120492517D01*
X174013779Y-120518152D01*
X173978137Y-120537204D01*
X173939466Y-120548935D01*
X173893112Y-120553500D01*
X172816888Y-120553500D01*
X172770534Y-120548935D01*
X172731863Y-120537204D01*
X172696221Y-120518152D01*
X172664983Y-120492517D01*
X172639348Y-120461279D01*
X172620296Y-120425637D01*
X172608565Y-120386966D01*
X172604000Y-120340612D01*
X172604000Y-119689388D01*
X172608565Y-119643034D01*
X172620296Y-119604363D01*
X172639348Y-119568721D01*
X172664983Y-119537483D01*
X172696221Y-119511848D01*
X172731863Y-119492796D01*
X172770534Y-119481065D01*
X172816888Y-119476500D01*
X173893112Y-119476500D01*
X173939466Y-119481065D01*
X173939466Y-119481065D01*
G37*
G36*
X171272466Y-119481065D02*
X171311137Y-119492796D01*
X171346779Y-119511848D01*
X171378017Y-119537483D01*
X171403652Y-119568721D01*
X171422704Y-119604363D01*
X171434435Y-119643034D01*
X171439000Y-119689388D01*
X171439000Y-120340612D01*
X171434435Y-120386966D01*
X171422704Y-120425637D01*
X171403652Y-120461279D01*
X171378017Y-120492517D01*
X171346779Y-120518152D01*
X171311137Y-120537204D01*
X171272466Y-120548935D01*
X171226112Y-120553500D01*
X170149888Y-120553500D01*
X170103534Y-120548935D01*
X170064863Y-120537204D01*
X170029221Y-120518152D01*
X169997983Y-120492517D01*
X169972348Y-120461279D01*
X169953296Y-120425637D01*
X169941565Y-120386966D01*
X169937000Y-120340612D01*
X169937000Y-119689388D01*
X169941565Y-119643034D01*
X169953296Y-119604363D01*
X169972348Y-119568721D01*
X169997983Y-119537483D01*
X170029221Y-119511848D01*
X170064863Y-119492796D01*
X170103534Y-119481065D01*
X170149888Y-119476500D01*
X171226112Y-119476500D01*
X171272466Y-119481065D01*
X171272466Y-119481065D01*
G37*
G36*
X181559466Y-119481065D02*
X181598137Y-119492796D01*
X181633779Y-119511848D01*
X181665017Y-119537483D01*
X181690652Y-119568721D01*
X181709704Y-119604363D01*
X181721435Y-119643034D01*
X181726000Y-119689388D01*
X181726000Y-120340612D01*
X181721435Y-120386966D01*
X181709704Y-120425637D01*
X181690652Y-120461279D01*
X181665017Y-120492517D01*
X181633779Y-120518152D01*
X181598137Y-120537204D01*
X181559466Y-120548935D01*
X181513112Y-120553500D01*
X180436888Y-120553500D01*
X180390534Y-120548935D01*
X180351863Y-120537204D01*
X180316221Y-120518152D01*
X180284983Y-120492517D01*
X180259348Y-120461279D01*
X180240296Y-120425637D01*
X180228565Y-120386966D01*
X180224000Y-120340612D01*
X180224000Y-119689388D01*
X180228565Y-119643034D01*
X180240296Y-119604363D01*
X180259348Y-119568721D01*
X180284983Y-119537483D01*
X180316221Y-119511848D01*
X180351863Y-119492796D01*
X180390534Y-119481065D01*
X180436888Y-119476500D01*
X181513112Y-119476500D01*
X181559466Y-119481065D01*
X181559466Y-119481065D01*
G37*
G36*
X155778466Y-119257065D02*
X155817137Y-119268796D01*
X155852779Y-119287848D01*
X155884017Y-119313483D01*
X155909652Y-119344721D01*
X155928704Y-119380363D01*
X155940435Y-119419034D01*
X155945000Y-119465388D01*
X155945000Y-120116612D01*
X155940435Y-120162966D01*
X155928704Y-120201637D01*
X155909652Y-120237279D01*
X155884017Y-120268517D01*
X155852779Y-120294152D01*
X155817137Y-120313204D01*
X155778466Y-120324935D01*
X155732112Y-120329500D01*
X154655888Y-120329500D01*
X154609534Y-120324935D01*
X154570863Y-120313204D01*
X154535221Y-120294152D01*
X154503983Y-120268517D01*
X154478348Y-120237279D01*
X154459296Y-120201637D01*
X154447565Y-120162966D01*
X154443000Y-120116612D01*
X154443000Y-119465388D01*
X154447565Y-119419034D01*
X154459296Y-119380363D01*
X154478348Y-119344721D01*
X154503983Y-119313483D01*
X154535221Y-119287848D01*
X154570863Y-119268796D01*
X154609534Y-119257065D01*
X154655888Y-119252500D01*
X155732112Y-119252500D01*
X155778466Y-119257065D01*
X155778466Y-119257065D01*
G37*
G36*
X191372442Y-118485518D02*
X191438627Y-118492037D01*
X191551853Y-118526384D01*
X191608467Y-118543557D01*
X191637053Y-118558837D01*
X191764991Y-118627222D01*
X191790918Y-118648500D01*
X191902186Y-118739814D01*
X191965516Y-118816983D01*
X192014778Y-118877009D01*
X192014779Y-118877011D01*
X192098443Y-119033533D01*
X192098443Y-119033534D01*
X192149963Y-119203373D01*
X192167359Y-119380000D01*
X192149963Y-119556627D01*
X192146294Y-119568721D01*
X192098443Y-119726467D01*
X192024348Y-119865087D01*
X192014778Y-119882991D01*
X191997893Y-119903565D01*
X191902186Y-120020186D01*
X191814937Y-120091788D01*
X191764991Y-120132778D01*
X191764989Y-120132779D01*
X191608467Y-120216443D01*
X191587998Y-120222652D01*
X191438627Y-120267963D01*
X191372442Y-120274482D01*
X191306260Y-120281000D01*
X191217740Y-120281000D01*
X191151558Y-120274482D01*
X191085373Y-120267963D01*
X190936002Y-120222652D01*
X190915533Y-120216443D01*
X190759011Y-120132779D01*
X190759009Y-120132778D01*
X190709063Y-120091788D01*
X190621814Y-120020186D01*
X190526107Y-119903565D01*
X190509222Y-119882991D01*
X190499652Y-119865087D01*
X190425557Y-119726467D01*
X190377706Y-119568721D01*
X190374037Y-119556627D01*
X190356641Y-119380000D01*
X190374037Y-119203373D01*
X190425557Y-119033534D01*
X190425557Y-119033533D01*
X190509221Y-118877011D01*
X190509222Y-118877009D01*
X190558484Y-118816983D01*
X190621814Y-118739814D01*
X190733082Y-118648500D01*
X190759009Y-118627222D01*
X190886947Y-118558837D01*
X190915533Y-118543557D01*
X190972147Y-118526384D01*
X191085373Y-118492037D01*
X191151558Y-118485518D01*
X191217740Y-118479000D01*
X191306260Y-118479000D01*
X191372442Y-118485518D01*
X191372442Y-118485518D01*
G37*
G36*
X185156966Y-118760565D02*
X185195637Y-118772296D01*
X185231279Y-118791348D01*
X185262517Y-118816983D01*
X185288152Y-118848221D01*
X185307204Y-118883863D01*
X185318935Y-118922534D01*
X185323500Y-118968888D01*
X185323500Y-120045112D01*
X185318935Y-120091466D01*
X185307204Y-120130137D01*
X185288152Y-120165779D01*
X185262517Y-120197017D01*
X185231279Y-120222652D01*
X185195637Y-120241704D01*
X185156966Y-120253435D01*
X185110612Y-120258000D01*
X184459388Y-120258000D01*
X184413034Y-120253435D01*
X184374363Y-120241704D01*
X184338721Y-120222652D01*
X184307483Y-120197017D01*
X184281848Y-120165779D01*
X184262796Y-120130137D01*
X184251065Y-120091466D01*
X184246500Y-120045112D01*
X184246500Y-118968888D01*
X184251065Y-118922534D01*
X184262796Y-118883863D01*
X184281848Y-118848221D01*
X184307483Y-118816983D01*
X184338721Y-118791348D01*
X184374363Y-118772296D01*
X184413034Y-118760565D01*
X184459388Y-118756000D01*
X185110612Y-118756000D01*
X185156966Y-118760565D01*
X185156966Y-118760565D01*
G37*
G36*
X187031966Y-118760565D02*
X187070637Y-118772296D01*
X187106279Y-118791348D01*
X187137517Y-118816983D01*
X187163152Y-118848221D01*
X187182204Y-118883863D01*
X187193935Y-118922534D01*
X187198500Y-118968888D01*
X187198500Y-120045112D01*
X187193935Y-120091466D01*
X187182204Y-120130137D01*
X187163152Y-120165779D01*
X187137517Y-120197017D01*
X187106279Y-120222652D01*
X187070637Y-120241704D01*
X187031966Y-120253435D01*
X186985612Y-120258000D01*
X186334388Y-120258000D01*
X186288034Y-120253435D01*
X186249363Y-120241704D01*
X186213721Y-120222652D01*
X186182483Y-120197017D01*
X186156848Y-120165779D01*
X186137796Y-120130137D01*
X186126065Y-120091466D01*
X186121500Y-120045112D01*
X186121500Y-118968888D01*
X186126065Y-118922534D01*
X186137796Y-118883863D01*
X186156848Y-118848221D01*
X186182483Y-118816983D01*
X186213721Y-118791348D01*
X186249363Y-118772296D01*
X186288034Y-118760565D01*
X186334388Y-118756000D01*
X186985612Y-118756000D01*
X187031966Y-118760565D01*
X187031966Y-118760565D01*
G37*
G36*
X157734000Y-119543000D02*
X156982000Y-119543000D01*
X156982000Y-117881000D01*
X157734000Y-117881000D01*
X157734000Y-119543000D01*
X157734000Y-119543000D01*
G37*
G36*
X159634000Y-119543000D02*
X158882000Y-119543000D01*
X158882000Y-117881000D01*
X159634000Y-117881000D01*
X159634000Y-119543000D01*
X159634000Y-119543000D01*
G37*
G36*
X167346966Y-117998565D02*
X167385637Y-118010296D01*
X167421279Y-118029348D01*
X167452517Y-118054983D01*
X167478152Y-118086221D01*
X167497204Y-118121863D01*
X167508935Y-118160534D01*
X167513500Y-118206888D01*
X167513500Y-119283112D01*
X167508935Y-119329466D01*
X167497204Y-119368137D01*
X167478152Y-119403779D01*
X167452517Y-119435017D01*
X167421279Y-119460652D01*
X167385637Y-119479704D01*
X167346966Y-119491435D01*
X167300612Y-119496000D01*
X166649388Y-119496000D01*
X166603034Y-119491435D01*
X166564363Y-119479704D01*
X166528721Y-119460652D01*
X166497483Y-119435017D01*
X166471848Y-119403779D01*
X166452796Y-119368137D01*
X166441065Y-119329466D01*
X166436500Y-119283112D01*
X166436500Y-118206888D01*
X166441065Y-118160534D01*
X166452796Y-118121863D01*
X166471848Y-118086221D01*
X166497483Y-118054983D01*
X166528721Y-118029348D01*
X166564363Y-118010296D01*
X166603034Y-117998565D01*
X166649388Y-117994000D01*
X167300612Y-117994000D01*
X167346966Y-117998565D01*
X167346966Y-117998565D01*
G37*
G36*
X165471966Y-117998565D02*
X165510637Y-118010296D01*
X165546279Y-118029348D01*
X165577517Y-118054983D01*
X165603152Y-118086221D01*
X165622204Y-118121863D01*
X165633935Y-118160534D01*
X165638500Y-118206888D01*
X165638500Y-119283112D01*
X165633935Y-119329466D01*
X165622204Y-119368137D01*
X165603152Y-119403779D01*
X165577517Y-119435017D01*
X165546279Y-119460652D01*
X165510637Y-119479704D01*
X165471966Y-119491435D01*
X165425612Y-119496000D01*
X164774388Y-119496000D01*
X164728034Y-119491435D01*
X164689363Y-119479704D01*
X164653721Y-119460652D01*
X164622483Y-119435017D01*
X164596848Y-119403779D01*
X164577796Y-119368137D01*
X164566065Y-119329466D01*
X164561500Y-119283112D01*
X164561500Y-118206888D01*
X164566065Y-118160534D01*
X164577796Y-118121863D01*
X164596848Y-118086221D01*
X164622483Y-118054983D01*
X164653721Y-118029348D01*
X164689363Y-118010296D01*
X164728034Y-117998565D01*
X164774388Y-117994000D01*
X165425612Y-117994000D01*
X165471966Y-117998565D01*
X165471966Y-117998565D01*
G37*
G36*
X179654466Y-117606065D02*
X179693137Y-117617796D01*
X179728779Y-117636848D01*
X179760017Y-117662483D01*
X179785652Y-117693721D01*
X179804704Y-117729363D01*
X179816435Y-117768034D01*
X179821000Y-117814388D01*
X179821000Y-118465612D01*
X179816435Y-118511966D01*
X179804704Y-118550637D01*
X179785652Y-118586279D01*
X179760017Y-118617517D01*
X179728779Y-118643152D01*
X179693137Y-118662204D01*
X179654466Y-118673935D01*
X179608112Y-118678500D01*
X178531888Y-118678500D01*
X178485534Y-118673935D01*
X178446863Y-118662204D01*
X178411221Y-118643152D01*
X178379983Y-118617517D01*
X178354348Y-118586279D01*
X178335296Y-118550637D01*
X178323565Y-118511966D01*
X178319000Y-118465612D01*
X178319000Y-117814388D01*
X178323565Y-117768034D01*
X178335296Y-117729363D01*
X178354348Y-117693721D01*
X178379983Y-117662483D01*
X178411221Y-117636848D01*
X178446863Y-117617796D01*
X178485534Y-117606065D01*
X178531888Y-117601500D01*
X179608112Y-117601500D01*
X179654466Y-117606065D01*
X179654466Y-117606065D01*
G37*
G36*
X173939466Y-117606065D02*
X173978137Y-117617796D01*
X174013779Y-117636848D01*
X174045017Y-117662483D01*
X174070652Y-117693721D01*
X174089704Y-117729363D01*
X174101435Y-117768034D01*
X174106000Y-117814388D01*
X174106000Y-118465612D01*
X174101435Y-118511966D01*
X174089704Y-118550637D01*
X174070652Y-118586279D01*
X174045017Y-118617517D01*
X174013779Y-118643152D01*
X173978137Y-118662204D01*
X173939466Y-118673935D01*
X173893112Y-118678500D01*
X172816888Y-118678500D01*
X172770534Y-118673935D01*
X172731863Y-118662204D01*
X172696221Y-118643152D01*
X172664983Y-118617517D01*
X172639348Y-118586279D01*
X172620296Y-118550637D01*
X172608565Y-118511966D01*
X172604000Y-118465612D01*
X172604000Y-117814388D01*
X172608565Y-117768034D01*
X172620296Y-117729363D01*
X172639348Y-117693721D01*
X172664983Y-117662483D01*
X172696221Y-117636848D01*
X172731863Y-117617796D01*
X172770534Y-117606065D01*
X172816888Y-117601500D01*
X173893112Y-117601500D01*
X173939466Y-117606065D01*
X173939466Y-117606065D01*
G37*
G36*
X181559466Y-117606065D02*
X181598137Y-117617796D01*
X181633779Y-117636848D01*
X181665017Y-117662483D01*
X181690652Y-117693721D01*
X181709704Y-117729363D01*
X181721435Y-117768034D01*
X181726000Y-117814388D01*
X181726000Y-118465612D01*
X181721435Y-118511966D01*
X181709704Y-118550637D01*
X181690652Y-118586279D01*
X181665017Y-118617517D01*
X181633779Y-118643152D01*
X181598137Y-118662204D01*
X181559466Y-118673935D01*
X181513112Y-118678500D01*
X180436888Y-118678500D01*
X180390534Y-118673935D01*
X180351863Y-118662204D01*
X180316221Y-118643152D01*
X180284983Y-118617517D01*
X180259348Y-118586279D01*
X180240296Y-118550637D01*
X180228565Y-118511966D01*
X180224000Y-118465612D01*
X180224000Y-117814388D01*
X180228565Y-117768034D01*
X180240296Y-117729363D01*
X180259348Y-117693721D01*
X180284983Y-117662483D01*
X180316221Y-117636848D01*
X180351863Y-117617796D01*
X180390534Y-117606065D01*
X180436888Y-117601500D01*
X181513112Y-117601500D01*
X181559466Y-117606065D01*
X181559466Y-117606065D01*
G37*
G36*
X171272466Y-117606065D02*
X171311137Y-117617796D01*
X171346779Y-117636848D01*
X171378017Y-117662483D01*
X171403652Y-117693721D01*
X171422704Y-117729363D01*
X171434435Y-117768034D01*
X171439000Y-117814388D01*
X171439000Y-118465612D01*
X171434435Y-118511966D01*
X171422704Y-118550637D01*
X171403652Y-118586279D01*
X171378017Y-118617517D01*
X171346779Y-118643152D01*
X171311137Y-118662204D01*
X171272466Y-118673935D01*
X171226112Y-118678500D01*
X170149888Y-118678500D01*
X170103534Y-118673935D01*
X170064863Y-118662204D01*
X170029221Y-118643152D01*
X169997983Y-118617517D01*
X169972348Y-118586279D01*
X169953296Y-118550637D01*
X169941565Y-118511966D01*
X169937000Y-118465612D01*
X169937000Y-117814388D01*
X169941565Y-117768034D01*
X169953296Y-117729363D01*
X169972348Y-117693721D01*
X169997983Y-117662483D01*
X170029221Y-117636848D01*
X170064863Y-117617796D01*
X170103534Y-117606065D01*
X170149888Y-117601500D01*
X171226112Y-117601500D01*
X171272466Y-117606065D01*
X171272466Y-117606065D01*
G37*
G36*
X155778466Y-117576065D02*
X155817137Y-117587796D01*
X155852779Y-117606848D01*
X155884017Y-117632483D01*
X155909652Y-117663721D01*
X155928704Y-117699363D01*
X155940435Y-117738034D01*
X155945000Y-117784388D01*
X155945000Y-118435612D01*
X155940435Y-118481966D01*
X155928704Y-118520637D01*
X155909652Y-118556279D01*
X155884017Y-118587517D01*
X155852779Y-118613152D01*
X155817137Y-118632204D01*
X155778466Y-118643935D01*
X155732112Y-118648500D01*
X154655888Y-118648500D01*
X154609534Y-118643935D01*
X154570863Y-118632204D01*
X154535221Y-118613152D01*
X154503983Y-118587517D01*
X154478348Y-118556279D01*
X154459296Y-118520637D01*
X154447565Y-118481966D01*
X154443000Y-118435612D01*
X154443000Y-117784388D01*
X154447565Y-117738034D01*
X154459296Y-117699363D01*
X154478348Y-117663721D01*
X154503983Y-117632483D01*
X154535221Y-117606848D01*
X154570863Y-117587796D01*
X154609534Y-117576065D01*
X154655888Y-117571500D01*
X155732112Y-117571500D01*
X155778466Y-117576065D01*
X155778466Y-117576065D01*
G37*
G36*
X187031966Y-116855565D02*
X187070637Y-116867296D01*
X187106279Y-116886348D01*
X187137517Y-116911983D01*
X187163152Y-116943221D01*
X187182204Y-116978863D01*
X187193935Y-117017534D01*
X187198500Y-117063888D01*
X187198500Y-118140112D01*
X187193935Y-118186466D01*
X187182204Y-118225137D01*
X187163152Y-118260779D01*
X187137517Y-118292017D01*
X187106279Y-118317652D01*
X187070637Y-118336704D01*
X187031966Y-118348435D01*
X186985612Y-118353000D01*
X186334388Y-118353000D01*
X186288034Y-118348435D01*
X186249363Y-118336704D01*
X186213721Y-118317652D01*
X186182483Y-118292017D01*
X186156848Y-118260779D01*
X186137796Y-118225137D01*
X186126065Y-118186466D01*
X186121500Y-118140112D01*
X186121500Y-117063888D01*
X186126065Y-117017534D01*
X186137796Y-116978863D01*
X186156848Y-116943221D01*
X186182483Y-116911983D01*
X186213721Y-116886348D01*
X186249363Y-116867296D01*
X186288034Y-116855565D01*
X186334388Y-116851000D01*
X186985612Y-116851000D01*
X187031966Y-116855565D01*
X187031966Y-116855565D01*
G37*
G36*
X185156966Y-116855565D02*
X185195637Y-116867296D01*
X185231279Y-116886348D01*
X185262517Y-116911983D01*
X185288152Y-116943221D01*
X185307204Y-116978863D01*
X185318935Y-117017534D01*
X185323500Y-117063888D01*
X185323500Y-118140112D01*
X185318935Y-118186466D01*
X185307204Y-118225137D01*
X185288152Y-118260779D01*
X185262517Y-118292017D01*
X185231279Y-118317652D01*
X185195637Y-118336704D01*
X185156966Y-118348435D01*
X185110612Y-118353000D01*
X184459388Y-118353000D01*
X184413034Y-118348435D01*
X184374363Y-118336704D01*
X184338721Y-118317652D01*
X184307483Y-118292017D01*
X184281848Y-118260779D01*
X184262796Y-118225137D01*
X184251065Y-118186466D01*
X184246500Y-118140112D01*
X184246500Y-117063888D01*
X184251065Y-117017534D01*
X184262796Y-116978863D01*
X184281848Y-116943221D01*
X184307483Y-116911983D01*
X184338721Y-116886348D01*
X184374363Y-116867296D01*
X184413034Y-116855565D01*
X184459388Y-116851000D01*
X185110612Y-116851000D01*
X185156966Y-116855565D01*
X185156966Y-116855565D01*
G37*
G36*
X191372442Y-115945518D02*
X191438627Y-115952037D01*
X191551853Y-115986384D01*
X191608467Y-116003557D01*
X191747087Y-116077652D01*
X191764991Y-116087222D01*
X191800729Y-116116552D01*
X191902186Y-116199814D01*
X191969195Y-116281466D01*
X192014778Y-116337009D01*
X192014779Y-116337011D01*
X192098443Y-116493533D01*
X192098443Y-116493534D01*
X192149963Y-116663373D01*
X192167359Y-116840000D01*
X192149963Y-117016627D01*
X192118529Y-117120250D01*
X192098443Y-117186467D01*
X192024348Y-117325087D01*
X192014778Y-117342991D01*
X191985448Y-117378729D01*
X191902186Y-117480186D01*
X191800729Y-117563448D01*
X191764991Y-117592778D01*
X191764989Y-117592779D01*
X191608467Y-117676443D01*
X191559941Y-117691163D01*
X191438627Y-117727963D01*
X191372442Y-117734482D01*
X191306260Y-117741000D01*
X191217740Y-117741000D01*
X191151558Y-117734482D01*
X191085373Y-117727963D01*
X190964059Y-117691163D01*
X190915533Y-117676443D01*
X190759011Y-117592779D01*
X190759009Y-117592778D01*
X190723271Y-117563448D01*
X190621814Y-117480186D01*
X190538552Y-117378729D01*
X190509222Y-117342991D01*
X190499652Y-117325087D01*
X190425557Y-117186467D01*
X190405471Y-117120250D01*
X190374037Y-117016627D01*
X190356641Y-116840000D01*
X190374037Y-116663373D01*
X190425557Y-116493534D01*
X190425557Y-116493533D01*
X190509221Y-116337011D01*
X190509222Y-116337009D01*
X190554805Y-116281466D01*
X190621814Y-116199814D01*
X190723271Y-116116552D01*
X190759009Y-116087222D01*
X190776913Y-116077652D01*
X190915533Y-116003557D01*
X190972147Y-115986384D01*
X191085373Y-115952037D01*
X191151558Y-115945518D01*
X191217740Y-115939000D01*
X191306260Y-115939000D01*
X191372442Y-115945518D01*
X191372442Y-115945518D01*
G37*
G36*
X155778466Y-115701065D02*
X155817137Y-115712796D01*
X155852779Y-115731848D01*
X155884017Y-115757483D01*
X155909652Y-115788721D01*
X155928704Y-115824363D01*
X155940435Y-115863034D01*
X155945000Y-115909388D01*
X155945000Y-116560612D01*
X155940435Y-116606966D01*
X155928704Y-116645637D01*
X155909652Y-116681279D01*
X155884017Y-116712517D01*
X155852779Y-116738152D01*
X155817137Y-116757204D01*
X155778466Y-116768935D01*
X155732112Y-116773500D01*
X154655888Y-116773500D01*
X154609534Y-116768935D01*
X154570863Y-116757204D01*
X154535221Y-116738152D01*
X154503983Y-116712517D01*
X154478348Y-116681279D01*
X154459296Y-116645637D01*
X154447565Y-116606966D01*
X154443000Y-116560612D01*
X154443000Y-115909388D01*
X154447565Y-115863034D01*
X154459296Y-115824363D01*
X154478348Y-115788721D01*
X154503983Y-115757483D01*
X154535221Y-115731848D01*
X154570863Y-115712796D01*
X154609534Y-115701065D01*
X154655888Y-115696500D01*
X155732112Y-115696500D01*
X155778466Y-115701065D01*
X155778466Y-115701065D01*
G37*
G36*
X182936000Y-116481000D02*
X180284000Y-116481000D01*
X180284000Y-114819000D01*
X182936000Y-114819000D01*
X182936000Y-116481000D01*
X182936000Y-116481000D01*
G37*
G36*
X187031966Y-114950565D02*
X187070637Y-114962296D01*
X187106279Y-114981348D01*
X187137517Y-115006983D01*
X187163152Y-115038221D01*
X187182204Y-115073863D01*
X187193935Y-115112534D01*
X187198500Y-115158888D01*
X187198500Y-116235112D01*
X187193935Y-116281466D01*
X187182204Y-116320137D01*
X187163152Y-116355779D01*
X187137517Y-116387017D01*
X187106279Y-116412652D01*
X187070637Y-116431704D01*
X187031966Y-116443435D01*
X186985612Y-116448000D01*
X186334388Y-116448000D01*
X186288034Y-116443435D01*
X186249363Y-116431704D01*
X186213721Y-116412652D01*
X186182483Y-116387017D01*
X186156848Y-116355779D01*
X186137796Y-116320137D01*
X186126065Y-116281466D01*
X186121500Y-116235112D01*
X186121500Y-115158888D01*
X186126065Y-115112534D01*
X186137796Y-115073863D01*
X186156848Y-115038221D01*
X186182483Y-115006983D01*
X186213721Y-114981348D01*
X186249363Y-114962296D01*
X186288034Y-114950565D01*
X186334388Y-114946000D01*
X186985612Y-114946000D01*
X187031966Y-114950565D01*
X187031966Y-114950565D01*
G37*
G36*
X185156966Y-114950565D02*
X185195637Y-114962296D01*
X185231279Y-114981348D01*
X185262517Y-115006983D01*
X185288152Y-115038221D01*
X185307204Y-115073863D01*
X185318935Y-115112534D01*
X185323500Y-115158888D01*
X185323500Y-116235112D01*
X185318935Y-116281466D01*
X185307204Y-116320137D01*
X185288152Y-116355779D01*
X185262517Y-116387017D01*
X185231279Y-116412652D01*
X185195637Y-116431704D01*
X185156966Y-116443435D01*
X185110612Y-116448000D01*
X184459388Y-116448000D01*
X184413034Y-116443435D01*
X184374363Y-116431704D01*
X184338721Y-116412652D01*
X184307483Y-116387017D01*
X184281848Y-116355779D01*
X184262796Y-116320137D01*
X184251065Y-116281466D01*
X184246500Y-116235112D01*
X184246500Y-115158888D01*
X184251065Y-115112534D01*
X184262796Y-115073863D01*
X184281848Y-115038221D01*
X184307483Y-115006983D01*
X184338721Y-114981348D01*
X184374363Y-114962296D01*
X184413034Y-114950565D01*
X184459388Y-114946000D01*
X185110612Y-114946000D01*
X185156966Y-114950565D01*
X185156966Y-114950565D01*
G37*
G36*
X166738500Y-115351000D02*
X158761500Y-115351000D01*
X158761500Y-113249000D01*
X166738500Y-113249000D01*
X166738500Y-115351000D01*
X166738500Y-115351000D01*
G37*
G36*
X178613500Y-115351000D02*
X170636500Y-115351000D01*
X170636500Y-113249000D01*
X178613500Y-113249000D01*
X178613500Y-115351000D01*
X178613500Y-115351000D01*
G37*
G36*
X191372442Y-113405518D02*
X191438627Y-113412037D01*
X191551853Y-113446384D01*
X191608467Y-113463557D01*
X191747087Y-113537652D01*
X191764991Y-113547222D01*
X191800729Y-113576552D01*
X191902186Y-113659814D01*
X191985448Y-113761271D01*
X192014778Y-113797009D01*
X192014779Y-113797011D01*
X192098443Y-113953533D01*
X192098443Y-113953534D01*
X192149963Y-114123373D01*
X192167359Y-114300000D01*
X192149963Y-114476627D01*
X192131214Y-114538435D01*
X192098443Y-114646467D01*
X192024348Y-114785087D01*
X192014778Y-114802991D01*
X191985448Y-114838729D01*
X191902186Y-114940186D01*
X191820792Y-115006983D01*
X191764991Y-115052778D01*
X191764989Y-115052779D01*
X191608467Y-115136443D01*
X191551853Y-115153616D01*
X191438627Y-115187963D01*
X191372442Y-115194482D01*
X191306260Y-115201000D01*
X191217740Y-115201000D01*
X191151557Y-115194481D01*
X191085373Y-115187963D01*
X190972147Y-115153616D01*
X190915533Y-115136443D01*
X190759011Y-115052779D01*
X190759009Y-115052778D01*
X190703208Y-115006983D01*
X190621814Y-114940186D01*
X190538552Y-114838729D01*
X190509222Y-114802991D01*
X190499652Y-114785087D01*
X190425557Y-114646467D01*
X190392786Y-114538435D01*
X190374037Y-114476627D01*
X190356641Y-114300000D01*
X190374037Y-114123373D01*
X190425557Y-113953534D01*
X190425557Y-113953533D01*
X190509221Y-113797011D01*
X190509222Y-113797009D01*
X190538552Y-113761271D01*
X190621814Y-113659814D01*
X190723271Y-113576552D01*
X190759009Y-113547222D01*
X190776913Y-113537652D01*
X190915533Y-113463557D01*
X190972147Y-113446384D01*
X191085373Y-113412037D01*
X191151557Y-113405519D01*
X191217740Y-113399000D01*
X191306260Y-113399000D01*
X191372442Y-113405518D01*
X191372442Y-113405518D01*
G37*
G36*
X187061966Y-113045565D02*
X187100637Y-113057296D01*
X187136279Y-113076348D01*
X187167517Y-113101983D01*
X187193152Y-113133221D01*
X187212204Y-113168863D01*
X187223935Y-113207534D01*
X187228500Y-113253888D01*
X187228500Y-114330112D01*
X187223935Y-114376466D01*
X187212204Y-114415137D01*
X187193152Y-114450779D01*
X187167517Y-114482017D01*
X187136279Y-114507652D01*
X187100637Y-114526704D01*
X187061966Y-114538435D01*
X187015612Y-114543000D01*
X186364388Y-114543000D01*
X186318034Y-114538435D01*
X186279363Y-114526704D01*
X186243721Y-114507652D01*
X186212483Y-114482017D01*
X186186848Y-114450779D01*
X186167796Y-114415137D01*
X186156065Y-114376466D01*
X186151500Y-114330112D01*
X186151500Y-113253888D01*
X186156065Y-113207534D01*
X186167796Y-113168863D01*
X186186848Y-113133221D01*
X186212483Y-113101983D01*
X186243721Y-113076348D01*
X186279363Y-113057296D01*
X186318034Y-113045565D01*
X186364388Y-113041000D01*
X187015612Y-113041000D01*
X187061966Y-113045565D01*
X187061966Y-113045565D01*
G37*
G36*
X185186966Y-113045565D02*
X185225637Y-113057296D01*
X185261279Y-113076348D01*
X185292517Y-113101983D01*
X185318152Y-113133221D01*
X185337204Y-113168863D01*
X185348935Y-113207534D01*
X185353500Y-113253888D01*
X185353500Y-114330112D01*
X185348935Y-114376466D01*
X185337204Y-114415137D01*
X185318152Y-114450779D01*
X185292517Y-114482017D01*
X185261279Y-114507652D01*
X185225637Y-114526704D01*
X185186966Y-114538435D01*
X185140612Y-114543000D01*
X184489388Y-114543000D01*
X184443034Y-114538435D01*
X184404363Y-114526704D01*
X184368721Y-114507652D01*
X184337483Y-114482017D01*
X184311848Y-114450779D01*
X184292796Y-114415137D01*
X184281065Y-114376466D01*
X184276500Y-114330112D01*
X184276500Y-113253888D01*
X184281065Y-113207534D01*
X184292796Y-113168863D01*
X184311848Y-113133221D01*
X184337483Y-113101983D01*
X184368721Y-113076348D01*
X184404363Y-113057296D01*
X184443034Y-113045565D01*
X184489388Y-113041000D01*
X185140612Y-113041000D01*
X185186966Y-113045565D01*
X185186966Y-113045565D01*
G37*
G36*
X182936000Y-113781000D02*
X180284000Y-113781000D01*
X180284000Y-112119000D01*
X182936000Y-112119000D01*
X182936000Y-113781000D01*
X182936000Y-113781000D01*
G37*
G36*
X192163000Y-112661000D02*
X190361000Y-112661000D01*
X190361000Y-110859000D01*
X192163000Y-110859000D01*
X192163000Y-112661000D01*
X192163000Y-112661000D01*
G37*
G36*
X185186966Y-111140565D02*
X185225637Y-111152296D01*
X185261279Y-111171348D01*
X185292517Y-111196983D01*
X185318152Y-111228221D01*
X185337204Y-111263863D01*
X185348935Y-111302534D01*
X185353500Y-111348888D01*
X185353500Y-112425112D01*
X185348935Y-112471466D01*
X185337204Y-112510137D01*
X185318152Y-112545779D01*
X185292517Y-112577017D01*
X185261279Y-112602652D01*
X185225637Y-112621704D01*
X185186966Y-112633435D01*
X185140612Y-112638000D01*
X184489388Y-112638000D01*
X184443034Y-112633435D01*
X184404363Y-112621704D01*
X184368721Y-112602652D01*
X184337483Y-112577017D01*
X184311848Y-112545779D01*
X184292796Y-112510137D01*
X184281065Y-112471466D01*
X184276500Y-112425112D01*
X184276500Y-111348888D01*
X184281065Y-111302534D01*
X184292796Y-111263863D01*
X184311848Y-111228221D01*
X184337483Y-111196983D01*
X184368721Y-111171348D01*
X184404363Y-111152296D01*
X184443034Y-111140565D01*
X184489388Y-111136000D01*
X185140612Y-111136000D01*
X185186966Y-111140565D01*
X185186966Y-111140565D01*
G37*
G36*
X187061966Y-111140565D02*
X187100637Y-111152296D01*
X187136279Y-111171348D01*
X187167517Y-111196983D01*
X187193152Y-111228221D01*
X187212204Y-111263863D01*
X187223935Y-111302534D01*
X187228500Y-111348888D01*
X187228500Y-112425112D01*
X187223935Y-112471466D01*
X187212204Y-112510137D01*
X187193152Y-112545779D01*
X187167517Y-112577017D01*
X187136279Y-112602652D01*
X187100637Y-112621704D01*
X187061966Y-112633435D01*
X187015612Y-112638000D01*
X186364388Y-112638000D01*
X186318034Y-112633435D01*
X186279363Y-112621704D01*
X186243721Y-112602652D01*
X186212483Y-112577017D01*
X186186848Y-112545779D01*
X186167796Y-112510137D01*
X186156065Y-112471466D01*
X186151500Y-112425112D01*
X186151500Y-111348888D01*
X186156065Y-111302534D01*
X186167796Y-111263863D01*
X186186848Y-111228221D01*
X186212483Y-111196983D01*
X186243721Y-111171348D01*
X186279363Y-111152296D01*
X186318034Y-111140565D01*
X186364388Y-111136000D01*
X187015612Y-111136000D01*
X187061966Y-111140565D01*
X187061966Y-111140565D01*
G37*
M02*
