G04 #@! TF.GenerationSoftware,KiCad,Pcbnew,5.0.1*
G04 #@! TF.CreationDate,2019-11-25T21:23:25-06:00*
G04 #@! TF.ProjectId,ft2232_board,6674323233325F626F6172642E6B6963,A*
G04 #@! TF.SameCoordinates,Original*
G04 #@! TF.FileFunction,Legend,Bot*
G04 #@! TF.FilePolarity,Positive*
%FSLAX46Y46*%
G04 Gerber Fmt 4.6, Leading zero omitted, Abs format (unit mm)*
G04 Created by KiCad (PCBNEW 5.0.1) date Mon 25 Nov 2019 09:23:25 PM CST*
%MOMM*%
%LPD*%
G01*
G04 APERTURE LIST*
%ADD10C,0.300000*%
G04 APERTURE END LIST*
D10*
X188905078Y-138977601D02*
X189047935Y-138906172D01*
X189262221Y-138906172D01*
X189476506Y-138977601D01*
X189619363Y-139120458D01*
X189690792Y-139263315D01*
X189762221Y-139549029D01*
X189762221Y-139763315D01*
X189690792Y-140049029D01*
X189619363Y-140191886D01*
X189476506Y-140334743D01*
X189262221Y-140406172D01*
X189119363Y-140406172D01*
X188905078Y-140334743D01*
X188833649Y-140263315D01*
X188833649Y-139763315D01*
X189119363Y-139763315D01*
X188190792Y-140406172D02*
X188190792Y-138906172D01*
X187333649Y-140406172D01*
X187333649Y-138906172D01*
X186619363Y-140406172D02*
X186619363Y-138906172D01*
X186262221Y-138906172D01*
X186047935Y-138977601D01*
X185905078Y-139120458D01*
X185833649Y-139263315D01*
X185762221Y-139549029D01*
X185762221Y-139763315D01*
X185833649Y-140049029D01*
X185905078Y-140191886D01*
X186047935Y-140334743D01*
X186262221Y-140406172D01*
X186619363Y-140406172D01*
X189873221Y-137167743D02*
X188730363Y-137167743D01*
X189301792Y-137739172D02*
X189301792Y-136596315D01*
X188158935Y-136239172D02*
X187230363Y-136239172D01*
X187730363Y-136810601D01*
X187516078Y-136810601D01*
X187373221Y-136882029D01*
X187301792Y-136953458D01*
X187230363Y-137096315D01*
X187230363Y-137453458D01*
X187301792Y-137596315D01*
X187373221Y-137667743D01*
X187516078Y-137739172D01*
X187944649Y-137739172D01*
X188087506Y-137667743D01*
X188158935Y-137596315D01*
X186587506Y-137596315D02*
X186516078Y-137667743D01*
X186587506Y-137739172D01*
X186658935Y-137667743D01*
X186587506Y-137596315D01*
X186587506Y-137739172D01*
X186016078Y-136239172D02*
X185087506Y-136239172D01*
X185587506Y-136810601D01*
X185373221Y-136810601D01*
X185230363Y-136882029D01*
X185158935Y-136953458D01*
X185087506Y-137096315D01*
X185087506Y-137453458D01*
X185158935Y-137596315D01*
X185230363Y-137667743D01*
X185373221Y-137739172D01*
X185801792Y-137739172D01*
X185944649Y-137667743D01*
X186016078Y-137596315D01*
X184658935Y-136239172D02*
X184158935Y-137739172D01*
X183658935Y-136239172D01*
X188635221Y-135326172D02*
X189135221Y-134611886D01*
X189492363Y-135326172D02*
X189492363Y-133826172D01*
X188920935Y-133826172D01*
X188778078Y-133897601D01*
X188706649Y-133969029D01*
X188635221Y-134111886D01*
X188635221Y-134326172D01*
X188706649Y-134469029D01*
X188778078Y-134540458D01*
X188920935Y-134611886D01*
X189492363Y-134611886D01*
X188135221Y-133826172D02*
X187135221Y-135326172D01*
X187135221Y-133826172D02*
X188135221Y-135326172D01*
X186563792Y-135326172D02*
X186563792Y-133826172D01*
X186206649Y-133826172D01*
X185992363Y-133897601D01*
X185849506Y-134040458D01*
X185778078Y-134183315D01*
X185706649Y-134469029D01*
X185706649Y-134683315D01*
X185778078Y-134969029D01*
X185849506Y-135111886D01*
X185992363Y-135254743D01*
X186206649Y-135326172D01*
X186563792Y-135326172D01*
X189528078Y-131286172D02*
X188670935Y-131286172D01*
X189099506Y-132786172D02*
X189099506Y-131286172D01*
X188313792Y-131286172D02*
X187313792Y-132786172D01*
X187313792Y-131286172D02*
X188313792Y-132786172D01*
X186742363Y-132786172D02*
X186742363Y-131286172D01*
X186385221Y-131286172D01*
X186170935Y-131357601D01*
X186028078Y-131500458D01*
X185956649Y-131643315D01*
X185885221Y-131929029D01*
X185885221Y-132143315D01*
X185956649Y-132429029D01*
X186028078Y-132571886D01*
X186170935Y-132714743D01*
X186385221Y-132786172D01*
X186742363Y-132786172D01*
X188813506Y-128817601D02*
X188956363Y-128746172D01*
X189170649Y-128746172D01*
X189384935Y-128817601D01*
X189527792Y-128960458D01*
X189599221Y-129103315D01*
X189670649Y-129389029D01*
X189670649Y-129603315D01*
X189599221Y-129889029D01*
X189527792Y-130031886D01*
X189384935Y-130174743D01*
X189170649Y-130246172D01*
X189027792Y-130246172D01*
X188813506Y-130174743D01*
X188742078Y-130103315D01*
X188742078Y-129603315D01*
X189027792Y-129603315D01*
X188099221Y-130246172D02*
X188099221Y-128746172D01*
X187527792Y-128746172D01*
X187384935Y-128817601D01*
X187313506Y-128889029D01*
X187242078Y-129031886D01*
X187242078Y-129246172D01*
X187313506Y-129389029D01*
X187384935Y-129460458D01*
X187527792Y-129531886D01*
X188099221Y-129531886D01*
X186599221Y-130246172D02*
X186599221Y-128746172D01*
X185599221Y-128746172D02*
X185313506Y-128746172D01*
X185170649Y-128817601D01*
X185027792Y-128960458D01*
X184956363Y-129246172D01*
X184956363Y-129746172D01*
X185027792Y-130031886D01*
X185170649Y-130174743D01*
X185313506Y-130246172D01*
X185599221Y-130246172D01*
X185742078Y-130174743D01*
X185884935Y-130031886D01*
X185956363Y-129746172D01*
X185956363Y-129246172D01*
X185884935Y-128960458D01*
X185742078Y-128817601D01*
X185599221Y-128746172D01*
X183599221Y-130246172D02*
X184313506Y-130246172D01*
X184313506Y-128746172D01*
X183242078Y-128746172D02*
X182313506Y-128746172D01*
X182813506Y-129317601D01*
X182599221Y-129317601D01*
X182456363Y-129389029D01*
X182384935Y-129460458D01*
X182313506Y-129603315D01*
X182313506Y-129960458D01*
X182384935Y-130103315D01*
X182456363Y-130174743D01*
X182599221Y-130246172D01*
X183027792Y-130246172D01*
X183170649Y-130174743D01*
X183242078Y-130103315D01*
X181742078Y-129817601D02*
X181027792Y-129817601D01*
X181884935Y-130246172D02*
X181384935Y-128746172D01*
X180884935Y-130246172D01*
X188813506Y-126277601D02*
X188956363Y-126206172D01*
X189170649Y-126206172D01*
X189384935Y-126277601D01*
X189527792Y-126420458D01*
X189599221Y-126563315D01*
X189670649Y-126849029D01*
X189670649Y-127063315D01*
X189599221Y-127349029D01*
X189527792Y-127491886D01*
X189384935Y-127634743D01*
X189170649Y-127706172D01*
X189027792Y-127706172D01*
X188813506Y-127634743D01*
X188742078Y-127563315D01*
X188742078Y-127063315D01*
X189027792Y-127063315D01*
X188099221Y-127706172D02*
X188099221Y-126206172D01*
X187527792Y-126206172D01*
X187384935Y-126277601D01*
X187313506Y-126349029D01*
X187242078Y-126491886D01*
X187242078Y-126706172D01*
X187313506Y-126849029D01*
X187384935Y-126920458D01*
X187527792Y-126991886D01*
X188099221Y-126991886D01*
X186599221Y-127706172D02*
X186599221Y-126206172D01*
X185599221Y-126206172D02*
X185313506Y-126206172D01*
X185170649Y-126277601D01*
X185027792Y-126420458D01*
X184956363Y-126706172D01*
X184956363Y-127206172D01*
X185027792Y-127491886D01*
X185170649Y-127634743D01*
X185313506Y-127706172D01*
X185599221Y-127706172D01*
X185742078Y-127634743D01*
X185884935Y-127491886D01*
X185956363Y-127206172D01*
X185956363Y-126706172D01*
X185884935Y-126420458D01*
X185742078Y-126277601D01*
X185599221Y-126206172D01*
X183599221Y-127706172D02*
X184313506Y-127706172D01*
X184313506Y-126206172D01*
X183170649Y-126349029D02*
X183099221Y-126277601D01*
X182956363Y-126206172D01*
X182599221Y-126206172D01*
X182456363Y-126277601D01*
X182384935Y-126349029D01*
X182313506Y-126491886D01*
X182313506Y-126634743D01*
X182384935Y-126849029D01*
X183242078Y-127706172D01*
X182313506Y-127706172D01*
X181742078Y-127277601D02*
X181027792Y-127277601D01*
X181884935Y-127706172D02*
X181384935Y-126206172D01*
X180884935Y-127706172D01*
X188813506Y-123737601D02*
X188956363Y-123666172D01*
X189170649Y-123666172D01*
X189384935Y-123737601D01*
X189527792Y-123880458D01*
X189599221Y-124023315D01*
X189670649Y-124309029D01*
X189670649Y-124523315D01*
X189599221Y-124809029D01*
X189527792Y-124951886D01*
X189384935Y-125094743D01*
X189170649Y-125166172D01*
X189027792Y-125166172D01*
X188813506Y-125094743D01*
X188742078Y-125023315D01*
X188742078Y-124523315D01*
X189027792Y-124523315D01*
X188099221Y-125166172D02*
X188099221Y-123666172D01*
X187527792Y-123666172D01*
X187384935Y-123737601D01*
X187313506Y-123809029D01*
X187242078Y-123951886D01*
X187242078Y-124166172D01*
X187313506Y-124309029D01*
X187384935Y-124380458D01*
X187527792Y-124451886D01*
X188099221Y-124451886D01*
X186599221Y-125166172D02*
X186599221Y-123666172D01*
X185599221Y-123666172D02*
X185313506Y-123666172D01*
X185170649Y-123737601D01*
X185027792Y-123880458D01*
X184956363Y-124166172D01*
X184956363Y-124666172D01*
X185027792Y-124951886D01*
X185170649Y-125094743D01*
X185313506Y-125166172D01*
X185599221Y-125166172D01*
X185742078Y-125094743D01*
X185884935Y-124951886D01*
X185956363Y-124666172D01*
X185956363Y-124166172D01*
X185884935Y-123880458D01*
X185742078Y-123737601D01*
X185599221Y-123666172D01*
X183599221Y-125166172D02*
X184313506Y-125166172D01*
X184313506Y-123666172D01*
X182313506Y-125166172D02*
X183170649Y-125166172D01*
X182742078Y-125166172D02*
X182742078Y-123666172D01*
X182884935Y-123880458D01*
X183027792Y-124023315D01*
X183170649Y-124094743D01*
X181742078Y-124737601D02*
X181027792Y-124737601D01*
X181884935Y-125166172D02*
X181384935Y-123666172D01*
X180884935Y-125166172D01*
X188813506Y-121070601D02*
X188956363Y-120999172D01*
X189170649Y-120999172D01*
X189384935Y-121070601D01*
X189527792Y-121213458D01*
X189599221Y-121356315D01*
X189670649Y-121642029D01*
X189670649Y-121856315D01*
X189599221Y-122142029D01*
X189527792Y-122284886D01*
X189384935Y-122427743D01*
X189170649Y-122499172D01*
X189027792Y-122499172D01*
X188813506Y-122427743D01*
X188742078Y-122356315D01*
X188742078Y-121856315D01*
X189027792Y-121856315D01*
X188099221Y-122499172D02*
X188099221Y-120999172D01*
X187527792Y-120999172D01*
X187384935Y-121070601D01*
X187313506Y-121142029D01*
X187242078Y-121284886D01*
X187242078Y-121499172D01*
X187313506Y-121642029D01*
X187384935Y-121713458D01*
X187527792Y-121784886D01*
X188099221Y-121784886D01*
X186599221Y-122499172D02*
X186599221Y-120999172D01*
X185599221Y-120999172D02*
X185313506Y-120999172D01*
X185170649Y-121070601D01*
X185027792Y-121213458D01*
X184956363Y-121499172D01*
X184956363Y-121999172D01*
X185027792Y-122284886D01*
X185170649Y-122427743D01*
X185313506Y-122499172D01*
X185599221Y-122499172D01*
X185742078Y-122427743D01*
X185884935Y-122284886D01*
X185956363Y-121999172D01*
X185956363Y-121499172D01*
X185884935Y-121213458D01*
X185742078Y-121070601D01*
X185599221Y-120999172D01*
X183599221Y-122499172D02*
X184313506Y-122499172D01*
X184313506Y-120999172D01*
X182813506Y-120999172D02*
X182670649Y-120999172D01*
X182527792Y-121070601D01*
X182456363Y-121142029D01*
X182384935Y-121284886D01*
X182313506Y-121570601D01*
X182313506Y-121927743D01*
X182384935Y-122213458D01*
X182456363Y-122356315D01*
X182527792Y-122427743D01*
X182670649Y-122499172D01*
X182813506Y-122499172D01*
X182956363Y-122427743D01*
X183027792Y-122356315D01*
X183099221Y-122213458D01*
X183170649Y-121927743D01*
X183170649Y-121570601D01*
X183099221Y-121284886D01*
X183027792Y-121142029D01*
X182956363Y-121070601D01*
X182813506Y-120999172D01*
X181742078Y-122070601D02*
X181027792Y-122070601D01*
X181884935Y-122499172D02*
X181384935Y-120999172D01*
X180884935Y-122499172D01*
X189762221Y-118586172D02*
X188905078Y-118586172D01*
X189333649Y-120086172D02*
X189333649Y-118586172D01*
X188405078Y-120086172D02*
X188405078Y-118586172D01*
X187905078Y-119657601D01*
X187405078Y-118586172D01*
X187405078Y-120086172D01*
X186762221Y-120014743D02*
X186547935Y-120086172D01*
X186190792Y-120086172D01*
X186047935Y-120014743D01*
X185976506Y-119943315D01*
X185905078Y-119800458D01*
X185905078Y-119657601D01*
X185976506Y-119514743D01*
X186047935Y-119443315D01*
X186190792Y-119371886D01*
X186476506Y-119300458D01*
X186619363Y-119229029D01*
X186690792Y-119157601D01*
X186762221Y-119014743D01*
X186762221Y-118871886D01*
X186690792Y-118729029D01*
X186619363Y-118657601D01*
X186476506Y-118586172D01*
X186119363Y-118586172D01*
X185905078Y-118657601D01*
X189726506Y-116173172D02*
X188869363Y-116173172D01*
X189297935Y-117673172D02*
X189297935Y-116173172D01*
X188369363Y-117673172D02*
X188369363Y-116173172D01*
X188012221Y-116173172D01*
X187797935Y-116244601D01*
X187655078Y-116387458D01*
X187583649Y-116530315D01*
X187512221Y-116816029D01*
X187512221Y-117030315D01*
X187583649Y-117316029D01*
X187655078Y-117458886D01*
X187797935Y-117601743D01*
X188012221Y-117673172D01*
X188369363Y-117673172D01*
X186583649Y-116173172D02*
X186297935Y-116173172D01*
X186155078Y-116244601D01*
X186012221Y-116387458D01*
X185940792Y-116673172D01*
X185940792Y-117173172D01*
X186012221Y-117458886D01*
X186155078Y-117601743D01*
X186297935Y-117673172D01*
X186583649Y-117673172D01*
X186726506Y-117601743D01*
X186869363Y-117458886D01*
X186940792Y-117173172D01*
X186940792Y-116673172D01*
X186869363Y-116387458D01*
X186726506Y-116244601D01*
X186583649Y-116173172D01*
X189678935Y-113506172D02*
X188821792Y-113506172D01*
X189250363Y-115006172D02*
X189250363Y-113506172D01*
X188321792Y-115006172D02*
X188321792Y-113506172D01*
X187964649Y-113506172D01*
X187750363Y-113577601D01*
X187607506Y-113720458D01*
X187536078Y-113863315D01*
X187464649Y-114149029D01*
X187464649Y-114363315D01*
X187536078Y-114649029D01*
X187607506Y-114791886D01*
X187750363Y-114934743D01*
X187964649Y-115006172D01*
X188321792Y-115006172D01*
X186821792Y-115006172D02*
X186821792Y-113506172D01*
X189690792Y-110966172D02*
X188833649Y-110966172D01*
X189262221Y-112466172D02*
X189262221Y-110966172D01*
X187476506Y-112323315D02*
X187547935Y-112394743D01*
X187762221Y-112466172D01*
X187905078Y-112466172D01*
X188119363Y-112394743D01*
X188262221Y-112251886D01*
X188333649Y-112109029D01*
X188405078Y-111823315D01*
X188405078Y-111609029D01*
X188333649Y-111323315D01*
X188262221Y-111180458D01*
X188119363Y-111037601D01*
X187905078Y-110966172D01*
X187762221Y-110966172D01*
X187547935Y-111037601D01*
X187476506Y-111109029D01*
X186833649Y-112466172D02*
X186833649Y-110966172D01*
X185976506Y-112466172D02*
X186619363Y-111609029D01*
X185976506Y-110966172D02*
X186833649Y-111823315D01*
M02*
